<?xml version="1.0" encoding="UTF-8"?>
<svg id="Layer_1" xmlns="http://www.w3.org/2000/svg" version="1.1" xmlns:xlink="http://www.w3.org/1999/xlink" viewBox="0 0 1080 1080">
  <!-- Generator: Adobe Illustrator 29.1.0, SVG Export Plug-In . SVG Version: 2.1.0 Build 142)  -->
  <defs>
    <style>
      .st0 {
        fill: url(#linear-gradient2);
      }

      .st1 {
        mask: url(#mask-5);
      }

      .st2 {
        fill: #ffa80d;
      }

      .st2, .st3, .st4, .st5 {
        fill-rule: evenodd;
      }

      .st6 {
        mask: url(#mask-1);
      }

      .st3 {
        fill: url(#GradientFill_61);
      }

      .st7 {
        fill: #fff;
      }

      .st8 {
        mask: url(#mask);
      }

      .st9 {
        fill: url(#linear-gradient1);
      }

      .st10 {
        fill: none;
      }

      .st11 {
        filter: url(#luminosity-noclip5);
      }

      .st12 {
        mask: url(#mask-2);
      }

      .st4 {
        fill: url(#GradientFill_6);
      }

      .st13 {
        clip-path: url(#clippath-1);
      }

      .st14 {
        filter: url(#luminosity-noclip1);
      }

      .st15 {
        filter: url(#luminosity-noclip2);
      }

      .st16 {
        filter: url(#luminosity-noclip3);
      }

      .st17 {
        clip-path: url(#clippath-2);
      }

      .st18 {
        filter: url(#luminosity-noclip4);
      }

      .st19 {
        mask: url(#mask-4);
      }

      .st5 {
        fill: url(#GradientFill_62);
      }

      .st20 {
        fill: url(#linear-gradient);
      }

      .st21 {
        clip-path: url(#clippath);
      }

      .st22 {
        fill: #c60505;
      }

      .st23 {
        mask: url(#mask-3);
      }

      .st24 {
        filter: url(#luminosity-noclip);
      }
    </style>
    <clipPath id="clippath">
      <rect class="st10" x="110.4" y="263.9" width="859.2" height="552.3"/>
    </clipPath>
    <clipPath id="clippath-1">
      <path class="st10" d="M345,526.3c-3.2.4-5.7-33.7-5.7-33.7l-67.5,123.6-84.9,23.5,68.3,120.6,183.8,47,244.4-99.5,219-52.6,41.1-250.6-51.6-100.6-394,16.9-99,225.8-53.9-20.3Z"/>
    </clipPath>
    <linearGradient id="linear-gradient" x1="558.7" y1="200.5" x2="558.7" y2="970.5" gradientUnits="userSpaceOnUse">
      <stop offset="0" stop-color="#e81c24"/>
      <stop offset="1" stop-color="#9a1422"/>
    </linearGradient>
    <linearGradient id="linear-gradient1" x1="3004.5" y1="1230.8" x2="1192" y2="1878.3" gradientTransform="translate(-345.6 -1741.9) rotate(27.4)" gradientUnits="userSpaceOnUse">
      <stop offset="0" stop-color="red"/>
      <stop offset="1" stop-color="#ff0"/>
    </linearGradient>
    <linearGradient id="linear-gradient2" x1="553.1" y1="200.5" x2="553.1" y2="970.5" xlink:href="#linear-gradient"/>
    <linearGradient id="GradientFill_6" data-name="GradientFill 6" x1="621" y1="345" x2="638.9" y2="320.2" gradientTransform="translate(30.3 57.4) rotate(-.9)" gradientUnits="userSpaceOnUse">
      <stop offset="0" stop-color="#48a339"/>
      <stop offset="1" stop-color="#8bbf2d"/>
    </linearGradient>
    <linearGradient id="GradientFill_61" data-name="GradientFill 6" x1="718.1" y1="291.5" x2="691" y2="278.6" xlink:href="#GradientFill_6"/>
    <linearGradient id="GradientFill_62" data-name="GradientFill 6" x1="781.5" y1="356.1" x2="719.2" y2="361.5" xlink:href="#GradientFill_6"/>
    <clipPath id="clippath-2">
      <path class="st10" d="M867.6,554.1c-6.3,9.3-12.6,18.5-19.8,27.1-20.6,24.4-45.7,44.7-74.2,59-27.2,13.7-57.1,21.4-86.9,26.3-31,5.1-62.1,11.5-90.7,24.8-15.2,7-29.4,15.8-43.4,25.1-2,1.3-33.9-36.1-35.9-34.8-32.7,22.1-42.9,47.8-81.1,58.8-66.3,19.1-62.4,37.8-106.9-14.8-14.3-17,9.3-68.2,2.9-89.7-1.2-4.1-106.3,19.2-107.1,15-1.3-6.7-2-13.5-2.1-20.4-.7-60.7-101.5-107.3-159.2-78.5-30.9,15.5,60.5,380.5,94.8,380.6,29.5,0,442.6,9.1,472,5.1,28-3.7,127.3-91.6,151.2-106.3,24.7-15.2,85.6-14.8,110.6-29.4,22.6-13.3,0-112.6,26.4-114.9,26.4-2.2,2.7-138.7,25.4-126.2,28.3,15.5-23-126.8,8.3-117.6,2.2.6-63.5-19.7-61.7-18.5,3.3,2.3,3.5,5.9,3.7,9.5.3,5.9.3,11.8.6,17.7.9,18.5-.5,36.7-7.1,54.3-3.4,9-6.4,18.2-9.6,27.3-3.3,6.9-6.7,13.8-10,20.7Z"/>
    </clipPath>
    <filter id="luminosity-noclip" x="290.8" y="617" width="363.9" height="189.5" color-interpolation-filters="sRGB" filterUnits="userSpaceOnUse">
      <feFlood flood-color="#fff" result="bg"/>
      <feBlend in="SourceGraphic" in2="bg"/>
    </filter>
    <mask id="mask" x="290.8" y="617" width="363.9" height="189.5" maskUnits="userSpaceOnUse">
      <g class="st24">
        <image width="365" height="190" transform="translate(290 617)" xlink:href="Final Logo-3.png"/>
      </g>
    </mask>
    <filter id="luminosity-noclip1" x="486.8" y="727" width="13.5" height="21.4" color-interpolation-filters="sRGB" filterUnits="userSpaceOnUse">
      <feFlood flood-color="#fff" result="bg"/>
      <feBlend in="SourceGraphic" in2="bg"/>
    </filter>
    <mask id="mask-1" x="486.8" y="727" width="13.5" height="21.4" maskUnits="userSpaceOnUse">
      <g class="st14">
        <image width="15" height="22" transform="translate(486 727)" xlink:href="Final Logo-8.png"/>
      </g>
    </mask>
    <filter id="luminosity-noclip2" x="434.5" y="755" width="18.2" height="17.1" color-interpolation-filters="sRGB" filterUnits="userSpaceOnUse">
      <feFlood flood-color="#fff" result="bg"/>
      <feBlend in="SourceGraphic" in2="bg"/>
    </filter>
    <mask id="mask-2" x="434.5" y="755" width="18.2" height="17.1" maskUnits="userSpaceOnUse">
      <g class="st15">
        <image width="19" height="19" transform="translate(434 754)" xlink:href="Final Logo-10.png"/>
      </g>
    </mask>
    <filter id="luminosity-noclip3" x="215.6" y="697.6" width="33.2" height="27.7" color-interpolation-filters="sRGB" filterUnits="userSpaceOnUse">
      <feFlood flood-color="#fff" result="bg"/>
      <feBlend in="SourceGraphic" in2="bg"/>
    </filter>
    <mask id="mask-3" x="215.6" y="697.6" width="33.2" height="27.7" maskUnits="userSpaceOnUse">
      <g class="st16">
        <image width="34" height="29" transform="translate(215 697)" xlink:href="Final Logo-22.png"/>
      </g>
    </mask>
    <filter id="luminosity-noclip4" x="275.6" y="650" width="17.2" height="60.5" color-interpolation-filters="sRGB" filterUnits="userSpaceOnUse">
      <feFlood flood-color="#fff" result="bg"/>
      <feBlend in="SourceGraphic" in2="bg"/>
    </filter>
    <mask id="mask-4" x="275.6" y="650" width="17.2" height="60.5" maskUnits="userSpaceOnUse">
      <g class="st18">
        <image width="18" height="61" transform="translate(275 650)" xlink:href="Final Logo-24.png"/>
      </g>
    </mask>
    <filter id="luminosity-noclip5" x="612.7" y="537.6" width="21.8" height="76.3" color-interpolation-filters="sRGB" filterUnits="userSpaceOnUse">
      <feFlood flood-color="#fff" result="bg"/>
      <feBlend in="SourceGraphic" in2="bg"/>
    </filter>
    <mask id="mask-5" x="612.7" y="537.6" width="21.8" height="76.3" maskUnits="userSpaceOnUse">
      <g class="st11">
        <image width="23" height="77" transform="translate(612 537)" xlink:href="Final Logo-26.png"/>
      </g>
    </mask>
  </defs>
  <g class="st21">
    <g>
      <g class="st13">
        <g>
          <path class="st20" d="M866.2,554.2c-6.3,9.3-13,17.3-20.2,25.9-33.3,39.4-74.1,63.7-124,76.5-20,5.1-39.6,6.2-60,9.2-42.2,6.2-82.8,26.5-116.7,52.3-17.8,13.6-37.4,22.7-56.5,34.4-40.8,24.9-80.5,33-127.3,24.9-8.8-1.5-11.2-4.3-19.9-6.2-12.4-6-20.6-10.4-33.1-16.5-.8-.7-7.3-4.9-8.1-5.5-8.4-5.7-14.4-10.1-21.2-17.4-11.7-12.7-25.3-24.3-34.2-39.2-14.7-24.7-22.4-48.9-18.4-77.8,1.4-10.4.8-20.7,3.8-30.6,6.8-14.1,16.3-26.6,23.1-40.7,7.4-10.2,14.3-18.2,23.6-26.7,29.6-26.8,63.9-42,103.4-47.6,21.9-3.1,42.9-.9,65.1-.7,22.4.2,44.8,1.1,66.8-3.6,19.8-4.2,43.7-15.8,60.5-27.2,23.6-16.1,46.9-29.1,71.4-43.9,24.5-14.8,46.6-28.1,75.6-30.6,28.8-2.4,51.3,7.4,76.1,21,14.7,8.1,29.8,17.4,44.5,25.5,11.2,6.2,23.2,6.5,35.4,10.6,4.2,1.4,7,7.5,11.8,6.4.8.4,1.8,1.2,2.6,1.6,2.1,9,.8,15.2,1.2,24.4.9,18.5.1,35.2-6.4,52.8-3.4,9-7.1,18.7-10.3,27.8-3.3,6.9-5.3,14-8.6,20.9Z"/>
          <path class="st9" d="M867.6,554.1c-6.3,9.3-12.6,18.5-19.8,27.1-20.6,24.4-45.7,44.7-74.2,59-27.2,13.7-57.1,21.4-86.9,26.3-31,5.1-62.1,11.5-90.7,24.8-52.9,24.5-95,70-151.9,86.4-66.3,19.1-139.8-3.3-184.2-55.9-21.4-25.4-37.1-57.7-37.5-91.4-.7-60.7,38.3-114.8,89.7-144.2,30-17.2,64.5-23.3,98.8-23.2,29.5,0,59.4,3.7,88.8-.2,28-3.7,53.4-15.2,77.2-29.9,24.7-15.2,47.6-33.1,72.6-47.8,22.6-13.3,47.6-24.1,74-26.3,26.4-2.2,51.3,7.9,74,20.3,28.3,15.5,55.2,33.9,86.5,43.1,2.2.6,4.4,1.2,6.2,2.5,3.3,2.3,3.5,5.9,3.7,9.5.3,5.9.3,11.8.6,17.7.9,18.5-.5,36.7-7.1,54.3-3.4,9-6.4,18.2-9.6,27.3-3.3,6.9-6.7,13.8-10,20.7ZM245.6,573.9c-4.4,8.5-8.7,21.6-11.7,35.1-4.2,18.9-2.2,37,5.6,54.8,8.7,19.7,16.6,39.7,32.4,55.2,14.4,14.1,28.4,28.8,47.3,36.8,26.4,11.1,54.1,16,82.8,14.5,32.9-1.7,64.2-8.9,93.1-25.9,26.8-15.8,52.6-33,76.7-52.4,24.6-19.8,52.4-31,83.5-34.5,12.8-1.5,25.6-3.2,38.5-4,28.1-1.8,54.5-9,78.7-23.4,48.7-28.9,82.1-70.9,103-123,8.5-21.1,10.8-43.4,7-66.1-1.7-10.4-1.8-10.3-12.1-11.4-19.8-2.1-36.8-11-53.1-21.9-14.4-9.6-28.7-19.3-44.1-27.4-25.8-13.5-52-13.1-78.4-3.1-33.6,12.7-64.5,30.8-95.2,49.2-16.9,10.1-32.7,21.8-49.7,31.7-19.5,11.3-40,18.4-62.8,18.8-18.8.3-37.5-.6-56.1-2-34.2-2.5-67.4,1-99,15.3-37.3,17-66.6,42.3-86.4,83.8Z"/>
        </g>
      </g>
      <g>
        <path class="st7" d="M410.7,679.4c0-3.3-.6-6.4-1.8-9.2-1.2-2.8-2.8-5.2-5-7.3-2.1-2-4.6-3.6-7.4-4.8-2.8-1.2-5.9-1.7-9.1-1.7s-6,.6-9.1,1.9c-3.1,1.3-6,3.1-8.9,5.4-2.9,2.3-5.5,5-8.1,8.2-2.5,3.2-4.7,6.7-6.6,10.5-1.9,3.8-3.4,7.8-4.5,12.1-1.1,4.3-1.6,8.7-1.6,13.2s.6,6.7,1.8,9.5c1.2,2.9,2.8,5.4,4.9,7.5,2,2.1,4.4,3.7,7,4.9,2.7,1.2,5.4,1.8,8.4,1.8s7.4-.7,10.9-2.2c3.4-1.5,6.6-3.5,9.6-6.1,3-2.6,5.7-5.5,8.1-9,2.4-3.4,4.5-7.1,6.2-10.9,1.7-3.8,3-7.8,3.9-11.9.9-4.1,1.4-8,1.4-11.8ZM396.9,683.2c-.6,4.2-1.4,8.2-2.5,12.2-1.1,4-2.3,7.8-3.9,11.4-1.5,3.6-3.2,6.8-5.1,9.4-1.8,2.7-3.8,4.8-5.9,6.4-2.1,1.6-4.3,2.4-6.6,2.4s-3-.4-4.4-1.3c-1.4-.9-2.7-2.2-3.8-3.8-1.1-1.7-2-3.7-2.7-6.2-.7-2.5-1-5.2-1-8.4s.2-7.1.6-10c.4-2.8.8-5.2,1.4-7.2.5-2.2,1.2-4.2,1.9-5.8,0,2.1.4,4.1,1.1,5.8.7,1.8,1.6,3.3,2.8,4.6,1.1,1.3,2.4,2.3,3.8,3,1.4.7,2.8,1.1,4.1,1.1s2.8-.2,3.9-.5,2-.7,2.7-1.2c.7-.5,1.2-.9,1.5-1.4.3-.4.5-.8.5-1.2,0-.8-.4-1.2-1.2-1.2s-.6,0-.9.2c-.3.1-.8.2-1.5.2s-1.8-.2-2.7-.7c-.9-.5-1.7-1.2-2.3-2-.7-.9-1.2-2-1.6-3.2-.4-1.3-.6-2.7-.6-4.2,0-2.7.5-5.3,1.4-7.7.9-2.4,2.1-4.5,3.6-6.2,1.5-1.8,3.2-3.2,5.1-4.2,1.9-1,3.8-1.5,5.8-1.5s3.7.8,5.2,2.3c1.5,1.6,2.2,3.8,2.2,6.7s-.3,7.9-.9,12.1Z"/>
        <path class="st7" d="M425.5,682c1.1,0,2.1-.3,3.1-.9,1-.6,1.9-1.4,2.7-2.3.8-1,1.4-2.1,1.8-3.4.4-1.3.7-2.6.7-3.9s-.5-3.1-1.5-4.1c-1-1-2.2-1.5-3.7-1.5s-2.2.3-3.3.9c-1,.6-1.9,1.4-2.7,2.3-.8,1-1.4,2.1-1.9,3.3-.5,1.2-.7,2.5-.7,3.8,0,1.8.5,3.3,1.6,4.3,1.1,1,2.4,1.5,3.9,1.5Z"/>
        <path class="st7" d="M470.5,664.8c-.5-1-1.1-1.9-1.9-2.7-.8-.8-1.7-1.5-2.7-2-1-.5-2.1-.8-3.3-.8-2.5,0-4.9.9-7.3,2.8-2.4,1.8-4.7,4.3-7,7.4-2.2,3.1-4.3,6.6-6.2,10.6-1.9,3.9-3.5,8-5,12.2-1.4,4.2-2.5,8.4-3.3,12.5-.8,4.2-1.2,7.9-1.2,11.3s0,.3,0,.5c-.9,1.4-1.8,2.5-2.8,3.6-1,1.2-2.2,2.2-3.5,3.1-1.3.9-2.7,1.3-4,1.3s-1.8-.4-2.4-1.1c-.6-.7-.9-1.7-.9-2.8,0-2.5.3-4.8.9-7.1.6-2.3,1.2-4.4,1.9-6.5.7-2,1.4-4,2-5.8.6-1.8.9-3.5.9-5.1s-.3-.9-.8-1.6c-.5-.6-1.2-1.3-2-1.9-.8-.6-1.7-1.2-2.7-1.6-1-.5-1.8-.7-2.6-.7s-1.2.2-1.6.6c-.5.4-.9.8-1.1,1.4-.6,1.4-1.4,3.3-2.3,5.7-.9,2.4-1.8,4.9-2.6,7.6-.8,2.7-1.5,5.3-2.1,7.9-.6,2.6-.9,4.8-.9,6.6,0,3.3,1.2,6,3.6,8.1,2.4,2.1,5.5,3.1,9.4,3.1s4.9-.6,7-1.9c2.1-1.3,4-2.7,5.6-4.3.9-.9,1.7-1.8,2.4-2.7,0,0,0,0,0,0,.9,1.9,2,3.5,3.4,4.9,1.4,1.3,3.1,2.3,5,3,1.9.7,3.8,1,5.9,1s3.2-.4,4.6-1.1,2.7-1.5,3.7-2.5c1.2-1,2.3-2.2,3.4-3.6.1-.3.3-.5.5-.8.4-.5.6-1,.6-1.4s-.2-1.1-.7-1.5c-.5-.5-1-.7-1.5-.7s-.9.2-1.2.5c-.3.3-.6.6-.9,1-.5.7-1,1.3-1.6,1.7-.5.4-1.1.8-1.8,1.1-.6.3-1.3.5-2,.5-1.9,0-3.4-.7-4.5-2.2-1.1-1.5-1.6-3.4-1.6-5.8s0-1.8.1-2.7c0-.9.2-1.8.3-2.5.1-.9.3-1.7.4-2.6,1.7-1.4,3.5-3.3,5.4-5.5,1.9-2.2,3.8-4.6,5.7-7.1,1.9-2.6,3.7-5.2,5.4-7.9,1.7-2.7,3.3-5.4,4.5-7.9,1.3-2.6,2.3-4.9,3.1-7.1.8-2.2,1.2-4,1.2-5.5s-.2-1.8-.7-2.8ZM465.2,671.8c-.6,1.8-1.4,3.9-2.4,6.1-1,2.2-2.1,4.5-3.4,6.9-1.3,2.4-2.6,4.7-4,6.9-1.4,2.2-2.7,4.2-4.1,6-1.4,1.8-2.7,3.1-3.8,4.1,1-4.3,2.3-8.5,4-12.8,1.6-4.2,3.3-8,5-11.4,1.7-3.4,3.3-6.2,4.8-8.3,1.5-2.1,2.8-3.2,3.7-3.2s1.2.5,1.2,1.4-.3,2.5-.9,4.3Z"/>
      </g>
      <path class="st0" d="M417.2,403.1c6.5,0,12.1,1.3,16.7,3.8,4.6,2.5,7.4,4.3,8.5,5.3,4.4-2.7,8.9-4.6,13.5-5.5,4.6-.9,8.6-1.4,12-1.4,6.3,0,9.4,1.5,9.4,4.4s-.6,2.3-1.7,3.6c-1.2,1.4-3.1,3.6-5.8,6.8-2.1,2.5-5,7.5-8.7,14.9-3.7,7.4-7.6,16.3-11.8,26.6-4.2,10.3-8.5,21.5-12.9,33.7-4.4,12.2-8.4,24.3-12,36.5h3.8c2.9,0,5.7-.4,8.3-1.3,2.6-.8,5-1.7,7.2-2.7,2.2-.9,4.1-1.8,5.7-2.7,1.6-.8,2.9-1.3,3.9-1.3s1.3.3,1.9.9c.6.6.9,1.6.9,2.8s-1.1,3.8-3.3,6.9c-2.2,3.1-5.1,6.4-8.7,9.8-3.6,3.4-7.7,6.5-12.3,9.4-4.6,2.9-9.4,4.8-14.5,5.7-1.3,6.1-2.3,11.9-3,17.5-.7,5.6-1.1,10.7-1.1,15.3,0,7.3,1.8,12.6,5.4,15.9,3.6,3.3,7.8,4.9,12.6,4.9s8.3-1.4,12.4-4.1c4.1-2.7,7.7-5.9,10.9-9.4,2.5-2.5,4.9-5.4,7.1-8.5.2-.9.3-1.8.5-2.8,2-9.9,4.4-19.3,7.1-28.3,2.7-9,5.5-17.3,8.3-24.9,2.8-7.6,5.2-13.5,7.1-17.9,1.7-4,4.5-6,8.5-6s5.3.9,9.1,2.8c3.8,1.9,8.1,6.6,12.9,14.2,4.4-3.8,9-7.1,13.8-10.1,4.2-2.5,8.9-4.8,14-6.9,5.1-2.1,10.4-3.1,15.9-3.1s12.4,2.2,16.4,6.6c4,4.4,7.1,10,9.4,16.7,4.8-4.2,9.9-8.1,15.1-11.6,4.4-2.9,9.4-5.6,14.9-8,5.6-2.4,11.3-3.6,17.2-3.6s5.5.7,8.3,2c2.8,1.4,5.4,3.1,7.7,5.4,2.3,2.2,4.1,4.7,5.5,7.4,1.4,2.7,2,5.5,2,8.2,0,4.2-1,9-3,14.5-2,5.5-4.3,11.3-6.8,17.5-2.5,6.2-4.8,12.5-6.8,19-2,6.5-3,12.9-3,19.2s.9,6.5,2.7,8.7c1.8,2.2,4.2,3.3,7.4,3.3s8.3-1.4,12.4-4.1c4.1-2.7,7.7-5.9,10.9-9.4,2.9-2.9,5.6-6.2,8.1-10,1-7.3,2.9-14.6,5.6-21.8,4.3-11.1,9.9-21.1,16.8-30.1,6.9-8.9,14.7-16.1,23.3-21.6,8.6-5.5,17.2-8.2,25.8-8.2s11.6.8,16,2.4c4.4,1.6,8,3.3,10.7,5.2,3.1,2.3,5.7,4.7,7.6,7.2,2.3,0,4.8.3,7.4.8,2.6.5,5,1.4,7.2,2.5,2.2,1.2,4,2.7,5.5,4.6,1.5,1.9,2.2,4.2,2.2,6.9s-.9,6.1-2.8,11.3c-1.9,5.2-4,11.1-6.3,17.5-2.3,6.4-4.4,13-6.3,19.8-1.9,6.8-2.8,12.9-2.8,18.1s.8,4.6,2.4,6.3c1.6,1.7,3.7,2.5,6.4,2.5,4.2,0,8.3-1.4,12.4-4.1,4.1-2.7,7.7-5.9,10.9-9.4,2.3-2.3,4.5-4.9,6.5-7.7.2-.9.6-1.7,1.2-2.5.9-1.4,1.6-2.5,2-3.3,2.9-4.2,7.1-10.9,12.4-20,5.3-9.1,10.3-21.1,14.9-36-2.1-1.5-3.9-3.4-5.3-5.7-1.3-1.9-2.4-4.3-3.5-7.2-1.1-2.9-1.6-6.4-1.6-10.4s.6-6.1,1.7-9c1.2-2.8,2.7-5.3,4.6-7.4,1.9-2.1,3.9-3.8,6-5,2.1-1.3,4.1-1.9,6-1.9s4.3.6,6.6,1.7c2.3,1.2,4.4,2.5,6.3,4.1,1.9,1.6,3.5,3.4,4.7,5.3,1.3,2,1.9,3.7,1.9,5.2,0,4.2-.7,7.7-2,10.4-1.4,2.7-2,5.3-2,7.9s1.3,4,3.8,5c2.5,1.1,5.7,1.6,9.4,1.6s6.6-.2,9-.6c2.4-.4,4.6-.9,6.5-1.4,1.9-.5,3.7-1,5.3-1.4,1.7-.4,3.5-.6,5.4-.6,3.8,0,6.9,1.5,9.3,4.4,2.4,2.9,3.6,6.5,3.6,10.7s-1.2,7.8-3.6,12.7c-2.4,4.9-5.1,10.3-8,16.2-2.9,5.9-5.6,12-8,18.4-2.4,6.4-3.6,12.7-3.6,19s.9,6.3,2.7,8.2c1.8,1.9,3.9,2.8,6.5,2.8s3.8-.5,5.7-1.6c1.9-1,3.7-2.2,5.4-3.5,1.9-1.5,3.8-3.3,5.7-5.4.8-1,1.8-2,2.8-3,1-.9,2.3-1.4,3.8-1.4s3.3.7,4.7,2.2c1.5,1.5,2.2,3,2.2,4.7s-.6,2.7-1.9,4.4c-.6.8-1.2,1.7-1.6,2.5-3.4,4.2-7,7.9-11,11-3.6,2.9-7.7,5.5-12.3,7.7-4.6,2.2-9.7,3.3-15.1,3.3s-10.4-.8-14.9-2.5c-4.5-1.7-8.4-3.9-11.8-6.8-3.4-2.8-6-6.1-7.9-9.9-1.9-3.8-2.8-7.9-2.8-12.3,0-6.9,1-13.4,3.1-19.5,2.1-6.1,4.4-11.6,6.8-16.7,2.4-5,4.7-9.5,6.8-13.4,2.1-3.9,3.1-7.1,3.1-9.6s-1-2.9-3-3.8c-2-.8-4.1-1.6-6.5-2.2-2.7-.6-5.9-1.2-9.4-1.6-6.1,15.3-11.9,27.9-17.3,37.6-4.5,8-8.2,14.3-11.3,18.9,0,0,0,0,0,0-.4.8-.8,1.8-1.3,2.8-4.6,7.3-9.8,13.8-15.4,19.5-4.8,4.8-10.5,9.2-17.1,13.2-6.6,4-13.8,6-21.6,6s-16.3-2.3-22.3-6.8c-6.1-4.5-9.7-11.2-10.7-20-4.2,5.2-8.7,9.8-13.5,13.5-4.2,3.4-8.9,6.4-14.2,9.1-5.2,2.7-10.9,4.1-17,4.1s-8.2-.8-12.1-2.4c-3.9-1.6-7.2-3.8-10.1-6.8-2.8-2.9-5.1-6.4-6.8-10.4-.5-1.1-.9-2.3-1.2-3.5-1.2,1.3-2.4,2.6-3.6,3.8-4.8,4.8-10.5,9.2-17.2,13.2-6.6,4-13.8,6-21.6,6-12,0-21.6-3.2-29-9.6-7.3-6.4-11-14.7-11-25s.8-13.6,2.5-19.5c1.7-5.9,3.5-11.2,5.5-16,2-4.8,3.8-9.3,5.5-13.5,1.7-4.2,2.5-8.1,2.5-11.6s-.5-3.6-1.6-4.6c-1.1-.9-2.4-1.4-4.1-1.4-3.6,0-8.4,3.3-14.5,9.9-6.1,6.6-11.8,16.4-17,29.4-4.6,11.1-8,21.4-10.1,30.7-2.1,9.3-3.1,17.7-3.1,25s-.6,4.5-1.7,5.2c-1.2.7-2.9,1.1-5.2,1.1-8.4,0-15.4-1.6-21.1-4.9-5.7-3.2-8.5-7.4-8.5-12.4s.9-13.5,2.8-20.9c1.9-7.4,4-14.7,6.5-21.9,2.4-7.1,4.6-13.7,6.4-19.8,1.9-6.1,2.8-11,2.8-14.8s-1.9-6.6-5.7-6.6-8.1,2.1-13.1,6.3c-4.9,4.2-9.5,10.3-13.8,18.4-4.3,8.1-7.9,18-10.9,29.9-2.9,11.9-4.4,25.3-4.4,40.4s-.6,4.5-1.7,5.2c-1.2.7-2.9,1.1-5.2,1.1-8.4,0-15.4-1.6-21.1-4.9-5.7-3.2-8.5-7.4-8.5-12.4s0-1,0-1.5c-4.8,4.7-10.3,9-16.8,12.9-6.6,4-13.8,6-21.6,6s-11.5-1.1-17-3.1c-5.5-2.1-10.2-5-14.3-8.8-4.1-3.8-7.3-8.3-9.8-13.7-2.4-5.4-3.6-11.3-3.6-17.8,0-12.4,1.6-25.7,4.7-40-6.5-3.1-13.2-6.7-20.1-10.7-6.9-4-14.3-8.1-22-12.3-9,16.2-17.2,30.8-24.5,43.9-7.3,13.1-14.9,24.3-22.7,33.5-7.8,9.2-16.2,16.4-25.2,21.4-9,5-19.7,7.6-32.1,7.6s-18.4-2.3-27.5-6.8c-9.1-4.5-17.3-10.6-24.5-18.3-7.2-7.7-13.1-16.5-17.6-26.4-4.5-10-6.8-20.4-6.8-31.3s1.8-19.9,5.5-28.8c3.7-8.9,8.9-16.7,15.7-23.3,6.8-6.6,15.1-11.8,24.7-15.6,9.6-3.8,20.5-5.7,32.4-5.7s28.7,2,42.8,6c14.1,4,27.9,8.7,41.5,14.2,9.6-15.7,18.6-29.6,26.7-41.5,8.2-12,16.1-21.9,23.8-29.7,7.7-7.9,15.2-13.8,22.7-17.8,7.4-4,15.3-6,23.4-6h0ZM387.6,524.6c5.5-18.7,12.1-36.9,20-54.6,7.9-17.7,15.7-33.6,23.4-47.7-1.1-.4-2-.7-3-.9-.9-.2-2.3-.3-3.9-.3-5.7,0-11.1,1.7-16.2,5-5.1,3.4-10.6,8.6-16.4,15.7-5.8,7.1-12.1,16.4-18.9,27.7-6.8,11.3-14.7,24.9-23.8,40.6,6.7,2.7,13.3,5.3,19.7,7.9,6.4,2.5,12.7,4.7,19,6.6h0ZM227.1,602.3c7.6,0,14.5-1.8,20.8-5.4,6.3-3.6,12.6-9,19-16.2,6.4-7.2,13.1-16.4,20.1-27.4,7-11,14.9-23.9,23.8-38.6-8-3.1-16.2-5.7-24.7-7.7-8.5-2-17.3-3-26.3-3-22.7,0-40.4,5.4-53.2,16.2-12.8,10.8-19.2,25.2-19.2,43.3s1,10.9,3.1,15.7c2.1,4.8,4.9,8.9,8.5,12.3,3.6,3.4,7.8,6,12.6,7.9,4.8,1.9,10,2.8,15.4,2.8h0ZM724.3,610.2c3.8,0,8.1-2.5,13.1-7.6,4.9-5,9.6-11.2,14-18.6,4.4-7.3,8.1-15.1,11.2-23.1,3-8.1,4.6-15.2,4.6-21.2s-1.1-8-3.3-10.2c-2.2-2.2-4.9-3.3-8-3.3-4.6,0-9.3,2.4-14.2,7.2-4.8,4.8-9.2,10.8-13.1,17.8-3.9,7-7.1,14.6-9.6,22.8-2.5,8.2-3.8,15.5-3.8,22,0,9.4,3,14.2,9.1,14.2h0ZM417.2,393.1c-9.8,0-19.3,2.4-28.2,7.2-8.3,4.5-16.8,11.1-25.1,19.6-8,8.2-16.4,18.7-24.8,31.1-7,10.2-14.6,21.9-22.6,34.9-11.4-4.3-23-8.1-34.7-11.4-14.9-4.2-30.2-6.4-45.5-6.4s-25.3,2.1-36.1,6.4c-10.9,4.2-20.3,10.2-28,17.7-7.8,7.5-13.8,16.5-18,26.7-4.2,10.1-6.3,21.1-6.3,32.6s2.6,24.2,7.7,35.4c4.9,10.9,11.5,20.7,19.5,29.2,8,8.5,17.2,15.3,27.4,20.3,10.5,5.2,21.2,7.8,32,7.8s26.5-3,37-8.8c10-5.6,19.5-13.6,28-23.7,8.1-9.7,16.1-21.5,23.7-35.1,6.1-10.9,12.7-22.7,19.7-35.3,4.6,2.5,9,5,13.2,7.4,4.7,2.7,9.3,5.2,13.8,7.5-2.3,12.1-3.4,23.7-3.4,34.5s1.5,15.3,4.5,21.9c2.9,6.5,7,12.2,12.1,16.9,5,4.6,10.9,8.3,17.5,10.8,6.6,2.5,13.5,3.8,20.6,3.8s18.6-2.5,26.7-7.4c2.6-1.5,5-3.2,7.4-4.9,1.9,2.1,4.4,4.2,7.7,6.1,7.2,4.1,15.9,6.2,26.1,6.2s7.7-.9,10.5-2.7h0s0,0,0,0c2.9-1.9,6.3-5.7,6.3-13.6,0-14.2,1.4-27,4.1-38,2.7-11,6.1-20.3,10-27.6,3.7-6.9,7.6-12.1,11.5-15.5.5-.4,1-.8,1.4-1.1-.4,1.6-.9,3.5-1.5,5.7-1.8,5.9-3.9,12.3-6.4,19.6-2.5,7.3-4.7,14.9-6.7,22.6-2.1,8.2-3.1,16.1-3.1,23.4s2.3,14.7,13.5,21.1c7.2,4.1,15.9,6.2,26.1,6.2s7.7-.9,10.5-2.7h0s0,0,0,0c2.9-1.9,6.3-5.7,6.3-13.6s1-14.3,2.9-22.8c2-8.7,5.2-18.5,9.5-29h0s0,0,0,0c4.7-11.7,9.7-20.5,14.9-26.2-1.3,3.3-2.8,6.8-4.3,10.4-2.1,5.1-4.1,10.9-5.9,17.1-1.9,6.7-2.9,14.2-2.9,22.3,0,13.3,4.9,24.2,14.4,32.6,9.2,8,21.1,12.1,35.5,12.1s18.6-2.5,26.7-7.4c4.6-2.8,8.9-5.8,12.8-9,1.1,1.5,2.3,2.9,3.6,4.3,3.8,3.9,8.3,7,13.5,9.1,5.1,2.1,10.4,3.1,15.9,3.1s14.9-1.8,21.6-5.2c5.8-3,11.1-6.4,15.7-10.2,1.1-.9,2.2-1.8,3.3-2.7,2.3,3.6,5.2,6.8,8.8,9.4,7.8,5.8,17.3,8.7,28.3,8.7s18.5-2.5,26.7-7.4c7.3-4.4,13.7-9.3,19.1-14.7,6.2-6.2,11.8-13.3,16.8-21.3l.5-.8.3-.8c.3-.6.5-1.2.7-1.7,3.1-4.8,6.9-11.2,11.3-19,4.7-8.4,9.7-19,14.9-31.4.2,0,.5.1.7.2.2,0,.3,0,.5.1-.2.3-.3.7-.5,1-2.2,4.1-4.5,8.7-7,13.8-2.6,5.3-5,11.3-7.2,17.7-2.4,7.1-3.7,14.8-3.7,22.8s1.3,11.6,3.9,16.7c2.5,5,6,9.4,10.4,13.1,4.2,3.6,9.2,6.4,14.8,8.5,5.6,2.1,11.8,3.1,18.4,3.1s13.5-1.4,19.4-4.3c5.3-2.5,10.1-5.5,14.2-8.9,4.5-3.6,8.8-7.8,12.5-12.6l.7-.8.5-.9c.1-.2.3-.5.6-1,2.6-3.4,3.9-6.9,3.9-10.4s-.9-7.5-5.1-11.8h0s0,0,0,0c-4.2-4.2-8.7-5.1-11.8-5.1s-7.6,1.4-10.5,4c-1.4,1.2-2.6,2.5-3.7,3.9-1.4,1.5-2.8,2.9-4.1,3.9-1.3,1-2.7,1.8-4.1,2.6,0-.2,0-.4,0-.7,0-5.1,1-10.3,3-15.5,2.3-6.1,4.8-11.9,7.6-17.5,2.9-5.9,5.6-11.4,8.1-16.3,3.1-6.4,4.6-12,4.6-17.1s-2-12.3-5.9-17c-4.3-5.3-10.2-8.1-17-8.1s-5.3.3-7.8.9h0s0,0,0,0c-1.7.4-3.6.9-5.6,1.5-1.6.4-3.4.8-5.5,1.2-1.8.3-4.3.5-7.3.5s-1.6,0-2.2,0c2-4.1,3.1-9.1,3.1-14.8s-1.1-6.9-3.4-10.5c-1.8-2.9-4.1-5.5-6.8-7.7-2.5-2-5.2-3.8-8.2-5.3-3.7-1.9-7.5-2.8-11.1-2.8s-7.5,1.1-11.1,3.3c-2.9,1.8-5.7,4.1-8.3,6.9-2.7,3-4.8,6.4-6.4,10.3-1.6,4-2.5,8.3-2.5,12.7s.7,9.8,2.2,13.8c1.3,3.7,2.8,6.7,4.5,9.3.7,1.1,1.5,2.2,2.3,3.1-3.8,11.4-7.9,20.8-12.1,28.1-5.2,8.8-9.2,15.3-12,19.3l-.4.6-.3.7c0,0-.3.7-1.3,2.1-.8,1.1-1.4,2.3-1.9,3.5-1.6,2-3.1,3.9-4.7,5.4l-.2.2-.2.2c-2.6,2.9-5.6,5.5-8.9,7.7-2,1.3-3.9,2.1-5.7,2.3.1-4.1,1-8.8,2.4-14.2,1.8-6.6,3.9-13,6.1-19.1,2.3-6.4,4.4-12.2,6.3-17.5,2.4-6.6,3.4-11.1,3.4-14.7s-1.5-9.4-4.3-13.1c-2.4-3-5.3-5.5-8.8-7.3-3-1.6-6.4-2.8-9.9-3.5-1.6-.3-3.1-.5-4.6-.7-1.9-1.9-4-3.8-6.4-5.6h-.1c0,0-.1-.2-.1-.2-3.5-2.4-7.7-4.5-13-6.4-5.5-2-12-2.9-19.4-2.9-10.5,0-21,3.3-31.2,9.7-9.5,6-18.2,14.1-25.8,23.9-7.5,9.7-13.6,20.6-18.3,32.6-2.7,7.1-4.7,14.3-5.9,21.6-1.8,2.5-3.7,4.8-5.7,6.7l-.2.2-.2.2c-2.6,2.9-5.5,5.5-8.9,7.7-2.4,1.6-4.6,2.4-6.7,2.4-.1-.4-.2-1-.2-2,0-5.3.9-10.8,2.5-16.3,1.9-6.2,4.1-12.3,6.5-18.2,2.5-6.2,4.8-12.2,6.9-17.8,2.4-6.6,3.6-12.5,3.6-17.9s-1-8.5-3.1-12.6c-1.9-3.8-4.4-7.2-7.5-10.2-3.1-2.9-6.5-5.3-10.3-7.1-4.2-2-8.5-3-12.7-3-7.2,0-14.3,1.5-21.1,4.4-6.1,2.6-11.6,5.6-16.5,8.9h0s0,0,0,0c-2,1.3-3.9,2.7-5.8,4.2-1.7-2.8-3.6-5.3-5.7-7.6-5.9-6.5-14.1-9.9-23.8-9.9s-13.3,1.3-19.7,3.9c-5.6,2.3-10.8,4.8-15.4,7.6h0s0,0,0,0c-2.2,1.4-4.5,2.8-6.6,4.4-3.5-4.2-7-7.1-10.5-8.9-5.2-2.6-9.7-3.9-13.6-3.9-8,0-14.5,4.4-17.7,12.1-2,4.6-4.3,10.6-7.2,18.3-2.9,7.7-5.8,16.3-8.5,25.5-2.8,9.2-5.3,19.1-7.3,29.2,0,.3-.1.5-.1.8-1.6,2.1-3.1,3.9-4.7,5.5l-.2.2-.2.2c-2.6,2.9-5.5,5.5-8.9,7.7-2.4,1.6-4.7,2.4-6.9,2.4s-4.1-.7-5.8-2.3c-1.3-1.2-2.1-4.3-2.1-8.5s.3-8.9,1-14c.5-3.4,1-7,1.7-10.6,3.9-1.3,7.6-3.1,11.2-5.4,5.1-3.3,9.7-6.8,13.8-10.6,4-3.8,7.4-7.6,10-11.3,3.6-5.1,5.1-8.9,5.1-12.7s-2.1-8.1-3.9-9.9c-3.2-3.2-6.6-3.9-9-3.9s-5.6.8-8.6,2.4c-1.3.7-3,1.5-4.9,2.3-.3.1-.7.3-1.1.4,2.2-6.8,4.5-13.6,7-20.4,4.4-12,8.7-23.3,12.8-33.3,4.1-10,8-18.7,11.5-26,4.4-8.9,6.6-12,7.3-12.9,3.1-3.5,4.7-5.5,5.8-6.8,2.7-3.2,4.1-6.6,4.1-10.1,0-5.4-3-10-8.1-12.4-2.9-1.4-6.6-2-11.3-2s-8.6.5-14,1.6c-3.7.8-7.3,2-10.9,3.6-1.2-.7-2.6-1.5-4.3-2.4-6.1-3.3-13.3-5-21.5-5h0ZM363.3,505.1c6.6-11.4,12.6-21.7,17.9-30.5,6.5-10.9,12.6-19.8,18.1-26.6,5.1-6.3,9.8-10.8,14-13.6-4.9,9.8-9.9,20.3-14.9,31.4-6.6,14.9-12.5,30.4-17.4,46-2.9-1-5.9-2.1-8.8-3.3-3-1.2-6-2.3-8.9-3.5h0ZM227.1,592.3c-4.2,0-8.1-.7-11.8-2.1-3.7-1.4-6.7-3.3-9.4-5.8-2.6-2.4-4.6-5.4-6.2-9-1.6-3.6-2.3-7.4-2.3-11.8,0-15.1,5.1-26.7,15.7-35.6,10.9-9.2,26.6-13.9,46.7-13.9s16.3.9,24,2.7c4.1,1,8.1,2.1,12.1,3.3-6.2,10.3-12,19.6-17.3,27.8-6.7,10.5-13.2,19.3-19.2,26.1-5.6,6.4-11.2,11.1-16.5,14.1-4.8,2.7-10,4.1-15.8,4.1h0ZM725.4,599.6c-.1-.8-.3-2-.3-3.6,0-5.5,1.1-11.9,3.3-19.1,2.3-7.5,5.3-14.5,8.8-20.9,3.4-6.2,7.2-11.4,11.4-15.5,2.7-2.7,5.3-4.3,7.1-4.3s.6,0,.9.3c.1.3.5,1.3.5,3.2,0,4.8-1.3,10.8-3.9,17.7-2.8,7.5-6.3,14.7-10.4,21.5-4,6.6-8.2,12.3-12.6,16.7-2.2,2.3-3.8,3.4-4.8,4h0Z"/>
      <path class="st7" d="M879.8,624.8c3.4,2.8,7.3,5.1,11.8,6.8,4.5,1.7,9.5,2.5,14.9,2.5s10.5-1.1,15.1-3.3c4.6-2.2,8.7-4.8,12.3-7.7,4-3.1,7.7-6.8,11-11,.4-.8.9-1.7,1.6-2.5,1.3-1.7,1.9-3.1,1.9-4.4s-.7-3.3-2.2-4.7c-1.5-1.5-3-2.2-4.7-2.2s-2.7.5-3.8,1.4c-1.1.9-2,1.9-2.8,3-1.9,2.1-3.8,3.9-5.7,5.4-1.7,1.3-3.5,2.4-5.4,3.5-1.9,1.1-3.8,1.6-5.7,1.6s-4.7-.9-6.5-2.8c-1.8-1.9-2.7-4.6-2.7-8.2,0-6.3,1.2-12.6,3.6-19,2.4-6.4,5.1-12.5,8-18.4,2.9-5.9,5.6-11.3,8-16.2,2.4-4.9,3.6-9.2,3.6-12.7s-1.2-7.8-3.6-10.7c-2.4-2.9-5.5-4.4-9.3-4.4s-3.7.2-5.4.6c-1.7.4-3.5.9-5.3,1.4-1.9.5-4,1-6.5,1.4-2.4.4-5.4.6-9,.6s-6.9-.5-9.4-1.6c-2.5-1-3.8-2.7-3.8-5s.7-5.1,2-7.9c1.4-2.7,2-6.2,2-10.4s-.6-3.2-1.9-5.2c-1.3-2-2.8-3.8-4.7-5.3-1.9-1.6-4-2.9-6.3-4.1-2.3-1.2-4.5-1.7-6.6-1.7s-3.9.6-6,1.9c-2.1,1.3-4.1,2.9-6,5-1.9,2.1-3.4,4.6-4.6,7.4-1.2,2.8-1.7,5.8-1.7,9s.5,7.4,1.6,10.4c1,2.9,2.2,5.4,3.5,7.2,1.5,2.3,3.2,4.2,5.3,5.7-4.6,14.9-9.6,26.9-14.9,36-5.3,9.1-9.5,15.8-12.4,20-.4.8-1.1,1.9-2,3.3-.6.8-.9,1.7-1.2,2.5-2.1,2.8-4.2,5.4-6.5,7.7-3.1,3.6-6.8,6.7-10.9,9.4-4.1,2.7-8.2,4.1-12.4,4.1s-4.9-.8-6.4-2.5c-1.6-1.7-2.4-3.8-2.4-6.3,0-5.2.9-11.3,2.8-18.1,1.9-6.8,4-13.4,6.3-19.8,2.3-6.4,4.4-12.2,6.3-17.5,1.9-5.2,2.8-9,2.8-11.3s-.7-5-2.2-6.9c-1.5-1.9-3.3-3.4-5.5-4.6-2.2-1.2-4.6-2-7.2-2.5-2.6-.5-5.1-.8-7.4-.8-1.9-2.5-4.4-4.9-7.6-7.2-2.7-1.9-6.3-3.6-10.7-5.2-4.4-1.6-9.8-2.4-16-2.4s-17.2,2.7-25.8,8.2c-8.6,5.5-16.4,12.6-23.3,21.6-6.9,8.9-12.5,18.9-16.8,30.1-2.8,7.2-4.7,14.5-5.6,21.8-2.5,3.8-5.2,7.1-8.1,10-3.1,3.6-6.8,6.7-10.9,9.4-4.1,2.7-8.2,4.1-12.4,4.1s-5.6-1.1-7.4-3.3c-1.8-2.2-2.7-5.1-2.7-8.7,0-6.3,1-12.7,3-19.2,2-6.5,4.3-12.8,6.8-19,2.5-6.2,4.8-12,6.8-17.5,2-5.5,3-10.3,3-14.5s-.7-5.5-2-8.2c-1.4-2.7-3.2-5.2-5.5-7.4-2.3-2.2-4.9-4-7.7-5.4-2.8-1.4-5.6-2-8.3-2-5.9,0-11.6,1.2-17.2,3.6-5.6,2.4-10.5,5.1-14.9,8-5.2,3.6-10.3,7.4-15.1,11.6-2.3-6.7-5.5-12.3-9.4-16.7-4-4.4-9.4-6.6-16.4-6.6s-10.8,1.1-15.9,3.1c-5.1,2.1-9.8,4.4-14,6.9-4.8,2.9-9.4,6.3-13.8,10.1-4.8-7.6-9.1-12.3-12.9-14.2-3.8-1.9-6.8-2.8-9.1-2.8-4,0-6.8,2-8.5,6-1.9,4.4-4.2,10.4-7.1,17.9-2.8,7.6-5.6,15.8-8.3,24.9-2.7,9-5.1,18.5-7.1,28.3-.2.9-.3,1.9-.5,2.8-2.2,3.2-4.6,6-7.1,8.5-3.1,3.6-6.8,6.7-10.9,9.4-4.1,2.7-8.2,4.1-12.4,4.1s-9-1.6-12.6-4.9c-3.6-3.3-5.4-8.5-5.4-15.9s.4-9.7,1.1-15.3c.7-5.6,1.7-11.4,3-17.5,5-.8,9.9-2.7,14.5-5.7,4.6-2.9,8.7-6.1,12.3-9.4,3.6-3.4,6.4-6.6,8.7-9.8,2.2-3.1,3.3-5.5,3.3-6.9s-.3-2.2-.9-2.8c-.6-.6-1.3-.9-1.9-.9-1.1,0-2.4.4-3.9,1.3-1.6.8-3.5,1.7-5.7,2.7-2.2.9-4.6,1.8-7.2,2.7-2.6.8-5.4,1.3-8.3,1.3h-3.8c3.6-12.2,7.6-24.3,12-36.5,4.4-12.2,8.7-23.4,12.9-33.7,4.2-10.3,8.1-19.1,11.8-26.6,3.7-7.4,6.6-12.4,8.7-14.9,2.7-3.1,4.7-5.4,5.8-6.8,1.2-1.4,1.7-2.6,1.7-3.6,0-2.9-3.1-4.4-9.4-4.4s-7.3.5-12,1.4c-4.6.9-9.1,2.8-13.5,5.5-1.1-1-3.9-2.8-8.5-5.3-4.6-2.5-10.2-3.8-16.7-3.8s-16,2-23.4,6c-7.5,4-15,9.9-22.7,17.8-7.7,7.9-15.6,17.8-23.8,29.7-8.2,12-17.1,25.8-26.7,41.5-13.6-5.5-27.5-10.2-41.5-14.2-14.1-4-28.3-6-42.8-6s-22.8,1.9-32.4,5.7c-9.7,3.8-17.9,9-24.7,15.6-6.8,6.6-12.1,14.4-15.7,23.3-3.7,8.9-5.5,18.5-5.5,28.8s2.3,21.4,6.8,31.3c4.5,10,10.4,18.8,17.6,26.4,7.2,7.7,15.4,13.7,24.5,18.3,9.1,4.5,18.3,6.8,27.5,6.8s23.1-2.5,32.1-7.6c9-5,17.4-12.2,25.2-21.4,7.8-9.2,15.3-20.4,22.7-33.5,7.3-13.1,15.5-27.7,24.5-43.9,7.8,4.2,15.1,8.3,22,12.3,6.9,4,13.6,7.6,20.1,10.7-3.1,14.3-4.7,27.6-4.7,40s1.2,12.4,3.6,17.8c2.4,5.3,5.7,9.9,9.8,13.7,4.1,3.8,8.9,6.7,14.3,8.8,5.5,2.1,11.1,3.1,17,3.1s14.9-2,21.6-6c6.4-3.9,12-8.2,16.8-12.9,0,.5,0,1,0,1.5,0,5,2.8,9.2,8.5,12.4,5.7,3.3,12.7,4.9,21.1,4.9s4-.4,5.2-1.1c1.2-.7,1.7-2.5,1.7-5.2,0-15.1,1.5-28.6,4.4-40.4,2.9-11.9,6.6-21.8,10.9-29.9,4.3-8.1,8.9-14.2,13.8-18.4,4.9-4.2,9.3-6.3,13.1-6.3s5.7,2.2,5.7,6.6-.9,8.7-2.8,14.8c-1.9,6.1-4,12.7-6.4,19.8-2.4,7.1-4.6,14.4-6.5,21.9-1.9,7.4-2.8,14.4-2.8,20.9s2.8,9.2,8.5,12.4c5.7,3.3,12.7,4.9,21.1,4.9s4-.4,5.2-1.1c1.2-.7,1.7-2.5,1.7-5.2,0-7.3,1-15.7,3.1-25,2.1-9.3,5.5-19.6,10.1-30.7,5.2-13,10.9-22.8,17-29.4,6.1-6.6,10.9-9.9,14.5-9.9s3,.5,4.1,1.4c1,.9,1.6,2.5,1.6,4.6,0,3.6-.8,7.5-2.5,11.6-1.7,4.2-3.5,8.7-5.5,13.5-2,4.8-3.8,10.2-5.5,16-1.7,5.9-2.5,12.4-2.5,19.5,0,10.3,3.7,18.6,11,25,7.3,6.4,17,9.6,29,9.6s14.9-2,21.6-6c6.6-4,12.3-8.4,17.2-13.2,1.2-1.2,2.4-2.5,3.6-3.8.3,1.2.7,2.4,1.2,3.5,1.7,4,3.9,7.4,6.8,10.4,2.8,2.9,6.2,5.2,10.1,6.8,3.9,1.6,7.9,2.4,12.1,2.4,6.1,0,11.7-1.4,17-4.1,5.2-2.7,10-5.8,14.2-9.1,4.8-3.8,9.3-8.3,13.5-13.5,1,8.8,4.6,15.5,10.7,20,6.1,4.5,13.5,6.8,22.3,6.8s14.9-2,21.6-6c6.6-4,12.3-8.4,17.1-13.2,5.7-5.7,10.8-12.2,15.4-19.5.4-1,.8-2,1.3-2.8,0,0,0,0,0,0,3.1-4.7,6.8-11,11.3-18.9,5.5-9.8,11.2-22.3,17.3-37.6,3.6.4,6.7.9,9.4,1.6,2.3.6,4.5,1.4,6.5,2.2,2,.8,3,2.1,3,3.8,0,2.5-1.1,5.7-3.1,9.6-2.1,3.9-4.4,8.3-6.8,13.4-2.4,5-4.7,10.6-6.8,16.7-2.1,6.1-3.1,12.6-3.1,19.5s.9,8.5,2.8,12.3c1.9,3.8,4.5,7.1,7.9,9.9ZM287.1,553.4c-7,11-13.7,20.1-20.1,27.4-6.4,7.2-12.7,12.6-19,16.2-6.3,3.6-13.2,5.4-20.8,5.4s-10.6-.9-15.4-2.8c-4.8-1.9-9-4.5-12.6-7.9-3.6-3.4-6.4-7.4-8.5-12.3-2.1-4.8-3.1-10.1-3.1-15.7,0-18,6.4-32.5,19.2-43.3,12.8-10.8,30.5-16.2,53.2-16.2s17.8,1,26.3,3c8.5,2,16.7,4.6,24.7,7.7-8.8,14.7-16.7,27.5-23.8,38.6ZM387.6,524.6c-6.3-1.9-12.6-4.1-19-6.6-6.4-2.5-13-5.1-19.7-7.9,9-15.7,16.9-29.3,23.8-40.6,6.8-11.3,13.1-20.6,18.9-27.7,5.8-7.1,11.2-12.4,16.4-15.7,5.1-3.4,10.5-5,16.2-5s3,.1,3.9.3c.9.2,1.9.5,3,.9-7.8,14.1-15.6,29.9-23.4,47.7-7.9,17.7-14.5,35.9-20,54.6ZM762.6,560.9c-3,8.1-6.8,15.8-11.2,23.1-4.4,7.3-9.1,13.5-14,18.6-4.9,5-9.3,7.6-13.1,7.6-6.1,0-9.1-4.7-9.1-14.2s1.3-13.8,3.8-22c2.5-8.2,5.7-15.8,9.6-22.8,3.9-7,8.2-13,13.1-17.8,4.8-4.8,9.5-7.2,14.2-7.2s5.8,1.1,8,3.3c2.2,2.2,3.3,5.6,3.3,10.2s-1.5,13.2-4.6,21.2Z"/>
      <g>
        <g>
          <path class="st7" d="M854.4,402.3c-3.3-10.1-9.5-18.7-18.5-25.5-8-6.2-18.3-10.9-30.6-14.2-6.8-1.8-13.6-2.6-20.3-2.5-7.6.1-15,1.5-22.1,4,4.2-5.5,7.5-11.4,10-17.7,6.7-17.3,5.4-33.7,3.1-44.3-1.3-6.3-3.5-12.5-5.9-17.5-3.2-6.5-6.1-9.4-9.6-9.6-1.3,0-2.6-.1-3.8-.1-15.4.2-30.1,8.2-43.7,23.8-10.1,11.6-15.6,25.5-15.9,40.2-.1,6.5.8,13,2.7,19.6-10-10.6-23.2-17.3-38.4-19.4-5.1-.7-10-1-14.7-1v6c0,0,0-6,0-6h0c-17,.3-30.4,5.7-40,16.3-2.7,3-1.6,7-1.1,9,.6,2.2,1.6,5,3,8,2.7,6.1,10.7,21.7,25.5,35.2,7,6.4,14.6,11.4,22.6,14.9,9.3,4.1,19.2,6.1,29.3,5.9s16.9-1.7,25.5-4.7l3-1,5.5,4.1c21.8,16,43.5,23.9,64.5,23.6,15.1-.2,29.5-4.7,42.7-13.2,13-8.4,20.6-18,23.2-21.7,4.5-6.4,4.9-9.3,4.1-11.8ZM703.2,338.8c.2-13.6,5.5-26.1,14.4-36.3,11.5-13.2,24.8-21.5,39.2-21.7,1.1,0,2.2,0,3.3,0,4.2.3,30.6,53.1-13,91.3-2.8,1.9-5.5,4-8.1,6.4-3.5,2.5-7.4,4.9-11.7,7.2-.4-30.5,9-63.7,24.6-89.7-18.5,23.8-30,55.5-34.2,85.6-8.6-12.7-14.8-27.2-14.5-42.8ZM685.8,421.1c-52.1.8-77.2-60-74.7-62.8,8.9-9.7,21.3-14.1,35.7-14.3,4.4,0,9,.2,13.7.9,13.9,2,26.5,8.2,35.9,18.7,10.8,12,15.8,27.6,17.6,43.4-23.7-20.7-54.3-37.8-84.9-43.9,30,9.7,59.9,29.4,80.2,53.6-8.4,2.9-16.3,4.2-23.6,4.4ZM784.3,443c-17.4.3-37.9-5.5-60.8-22.4,25.7-13.2,56.7-20.4,86.2-20.8,6.2,0,12.3.1,18.3.6-12.1-2.5-24.8-3.5-37.6-3.3-22.9.4-46.3,4.6-67.4,11.7,5.3-9.4,11.8-18.2,19.7-25.3,2.9-2.1,5.7-4.2,8.3-6.5,2.7-1.8,5.5-3.4,8.4-4.8,8.3-3.9,17-5.8,25.8-6s12.5.7,18.7,2.3c22.1,5.8,38.7,17.2,44.8,35.7,1,3-23,38.1-64.3,38.8Z"/>
          <path class="st2" d="M629.2,363.1c23.3,4.6,50.4,14.5,70.7,28.6-1.3-2.9-2.6-5.8-3.9-8.7-2.1-1.9-4.2-3.7-6.3-5.5-.8-.7-1.6-1.4-2.4-2-.1,0-.3-.2-.4-.3-1.7-1.1-3.3-2.3-5-3.4-8.8-5.6-18.1-10-27.3-14.8-2.3.2-4.8,0-7.2-.3-2-.3-4-.8-6.1-1.2-2.3,0-4.7.2-7,.5-6.4,1.1-12.8,2.6-19.2,4,3.1,12.4,28.9,59.5,75.4,58.8,6.2,0,12.2-.2,19-2,1.2-.3,2.5-.7,3.8-1.2-20.4-24.2-50.9-43-84-52.4Z"/>
          <path class="st4" d="M629.2,363.1c30.6,6.1,61.2,23.1,84.9,43.9-1.8-15.8-6.9-31.4-17.6-43.4-9.4-10.5-22-16.7-35.9-18.7-4.7-.7-9.3-1-13.7-.9-14.4.2-26.8,4.6-35.7,14.3-2.5,2.8,22.6,63.6,74.7,62.8,7.3-.1,15.2-1.5,23.6-4.4-20.4-24.2-50.3-43.9-80.2-53.6Z"/>
          <path class="st2" d="M753.3,285c-.2-.4-.3-.8-.4-1.1-14.4,1.4-26.9,10.6-37.3,24.7-8.1,10.9-12.3,23.7-11.5,37.3.8,13.1,9,24.8,13.6,35.7,1.4,1.9,2.8,3.9,4.3,5.7,1.8-30.3,13.4-66.2,29.9-91.3-.7,1.5,2.4-8.8,1.4-11Z"/>
          <path class="st3" d="M727.2,385.8c70.4-37.6,37.6-104.5,32.9-104.8-1.1,0-2.2-.1-3.3,0-14.4.2-27.7,8.5-39.2,21.7-8.9,10.2-14.2,22.7-14.4,36.3-.3,15.5,5.9,30.1,14.5,42.8,4.2-30.1,15.7-61.8,34.2-85.6-15.7,26-25.1,59.2-24.6,89.7Z"/>
        </g>
        <path class="st2" d="M798.6,369.5c-6.3-1.3-12.6-1.7-18.8-1.2-8.8.7-48,28.6-56.9,40.5-1,1.8-1.9,3.8-2.8,5.6,20.7-8.2,43.7-13.9,66.6-15.6,12.8-.9,29-.2,41.2,1.6-6-.1-6.9-26.3-29.4-30.9Z"/>
        <path class="st5" d="M848.7,404.2c-6.1-18.5-22.7-29.9-44.8-35.7-6.2-1.6-12.5-2.4-18.7-2.3-8.8.1-17.5,2.1-25.8,6-16,7.6-27.9,21.3-36.4,36.6,21.1-7,44.5-11.3,67.4-11.7,12.8-.2,25.5.8,37.6,3.3-6-.5-12.1-.7-18.3-.6-29.5.5-60.5,7.7-86.2,20.8,23,16.9,43.5,22.7,60.8,22.4,41.4-.6,65.3-35.8,64.3-38.8Z"/>
      </g>
      <g>
        <path class="st7" d="M646.3,486.8c-1.6,0-3-.3-4.2-.8-1.1-.5-2-1.2-2.6-2-.6-.8-.9-1.7-1-2.5,0-.2,0-.3.2-.4s.3-.2.4-.2h1.4c.2,0,.4,0,.5.2.1.1.2.2.2.4.1.5.4.9.7,1.4s.9.8,1.6,1.1c.7.3,1.5.4,2.6.4,1.6,0,2.8-.3,3.6-.9.8-.6,1.2-1.3,1.2-2.3s-.2-1.2-.6-1.6-1-.8-1.9-1.1c-.8-.3-1.9-.7-3.2-1.1-1.4-.4-2.5-.8-3.4-1.3-.9-.5-1.6-1.1-2-1.8s-.7-1.6-.7-2.7.3-1.9.8-2.7c.5-.8,1.3-1.4,2.4-1.9,1-.5,2.3-.7,3.8-.7s2.2.2,3.1.5c.9.3,1.6.7,2.2,1.3.6.5,1,1.1,1.3,1.7.3.6.5,1.2.5,1.7,0,.1,0,.3-.1.4,0,.1-.2.2-.5.2h-1.5c-.1,0-.3,0-.4-.1-.1,0-.3-.2-.3-.4-.1-.8-.6-1.4-1.3-2-.8-.5-1.7-.8-3-.8-1.2,0-2.2.2-3,.7-.8.5-1.2,1.2-1.2,2.2s.2,1.2.5,1.6.9.8,1.7,1.1c.8.3,1.8.7,3,1,1.5.4,2.8.9,3.7,1.3,1,.5,1.7,1,2.1,1.7.5.7.7,1.6.7,2.7s-.3,2.2-.9,3.1c-.6.8-1.5,1.5-2.6,1.9-1.1.4-2.5.7-4,.7Z"/>
        <path class="st7" d="M657.7,469c-.2,0-.3,0-.5-.2-.1-.1-.2-.3-.2-.5v-1.5c0-.2,0-.4.2-.5.1-.1.3-.2.5-.2h1.8c.2,0,.4,0,.5.2.1.1.2.3.2.5v1.5c0,.2,0,.3-.2.5-.1.1-.3.2-.5.2h-1.8ZM657.9,486.5c-.2,0-.3,0-.5-.2s-.2-.3-.2-.5v-13.5c0-.2,0-.3.2-.5.1-.1.3-.2.5-.2h1.4c.2,0,.3,0,.5.2.1.1.2.3.2.5v13.5c0,.2,0,.3-.2.5s-.3.2-.5.2h-1.4Z"/>
        <path class="st7" d="M664.8,486.5c-.2,0-.3,0-.5-.2s-.2-.3-.2-.5v-13.5c0-.2,0-.3.2-.5.1-.1.3-.2.5-.2h1.3c.2,0,.3,0,.5.2.1.1.2.3.2.5v1.3c.5-.6,1.1-1.2,1.9-1.6.7-.4,1.7-.6,2.9-.6s2.3.3,3.1.8,1.5,1.3,2,2.2c.4,1,.7,2.1.7,3.3v8c0,.2,0,.3-.2.5-.1.1-.3.2-.5.2h-1.4c-.2,0-.3,0-.5-.2-.1-.1-.2-.3-.2-.5v-7.9c0-1.3-.3-2.4-1-3.1-.6-.8-1.6-1.1-2.8-1.1s-2.1.4-2.8,1.1c-.7.7-1.1,1.8-1.1,3.1v7.9c0,.2,0,.3-.2.5s-.3.2-.5.2h-1.4Z"/>
        <path class="st7" d="M687.3,486.8c-1.3,0-2.5-.3-3.5-.8-1-.5-1.7-1.3-2.3-2.2s-.8-2.1-.9-3.5c0-.3,0-.7,0-1.1s0-.9,0-1.1c0-1.4.3-2.5.9-3.5.5-1,1.3-1.7,2.3-2.2,1-.5,2.1-.8,3.5-.8,1.1,0,2,.2,2.8.5.8.3,1.4.7,1.9,1.2.5.5.9,1,1.2,1.5.3.6.4,1.1.4,1.6,0,.2,0,.3-.2.5-.1.1-.3.2-.5.2h-1.4c-.2,0-.3,0-.4-.1,0,0-.2-.2-.3-.4-.3-.9-.8-1.6-1.4-2-.6-.4-1.3-.6-2.2-.6-1.1,0-2.1.4-2.8,1.1s-1.1,1.8-1.2,3.4c0,.7,0,1.3,0,2,0,1.6.4,2.7,1.2,3.4.7.7,1.6,1,2.8,1s1.6-.2,2.2-.6c.6-.4,1.1-1,1.4-2,0-.2.2-.4.3-.5,0,0,.2-.1.4-.1h1.4c.2,0,.4,0,.5.2s.2.3.2.5c0,.4-.1.8-.3,1.2s-.4.8-.7,1.3-.7.8-1.2,1.1-1.1.6-1.8.8c-.7.2-1.5.3-2.4.3Z"/>
        <path class="st7" d="M703,486.8c-2,0-3.5-.6-4.7-1.8-1.2-1.2-1.8-2.8-1.9-4.9,0-.2,0-.6,0-1s0-.7,0-1c0-1.3.4-2.5.9-3.5.6-1,1.3-1.8,2.3-2.3,1-.6,2.1-.8,3.4-.8s2.6.3,3.6.9c1,.6,1.7,1.5,2.2,2.6.5,1.1.8,2.4.8,3.9v.5c0,.2,0,.4-.2.5-.1.1-.3.2-.5.2h-9.8,0c0,.2,0,.2,0,.3,0,.8.2,1.5.5,2.2.3.7.7,1.2,1.3,1.6.6.4,1.3.6,2,.6s1.3-.1,1.7-.3c.5-.2.8-.4,1.1-.7.3-.3.5-.5.6-.6.2-.2.3-.4.4-.4,0,0,.2,0,.5,0h1.4c.2,0,.3,0,.4.2.1.1.2.3.2.4,0,.3-.2.6-.5,1-.3.4-.7.8-1.2,1.2s-1.2.7-1.9,1c-.8.3-1.6.4-2.6.4ZM699.1,478h7.8,0c0-.9-.2-1.7-.5-2.4-.3-.7-.8-1.2-1.4-1.6-.6-.4-1.3-.6-2.1-.6s-1.5.2-2.1.6c-.6.4-1,.9-1.3,1.6-.3.7-.5,1.4-.5,2.3h0Z"/>
        <path class="st7" d="M725.7,486.5c-.2,0-.3,0-.5-.2-.1-.1-.2-.3-.2-.5v-15.9s-4.7,3.6-4.7,3.6c-.2.1-.3.2-.5.1-.2,0-.3-.1-.4-.3l-.7-.9c-.1-.2-.2-.3-.1-.5,0-.2.1-.3.3-.4l6.2-4.8c.1,0,.3-.2.4-.2.1,0,.2,0,.4,0h1.4c.2,0,.3,0,.5.2.1.1.2.3.2.5v18.6c0,.2,0,.3-.2.5-.1.1-.3.2-.5.2h-1.5Z"/>
        <path class="st7" d="M735.5,486.5c-.2,0-.3,0-.4-.2-.1-.1-.2-.3-.2-.4s0-.2,0-.2,0-.1,0-.1l4.3-6.1c-.5.1-1,.2-1.5.2-1,0-2-.2-2.8-.6-.8-.4-1.6-.8-2.1-1.5-.6-.6-1-1.3-1.3-2.1s-.5-1.6-.5-2.4.1-1.6.4-2.4.7-1.5,1.3-2.2c.6-.6,1.3-1.2,2.2-1.5.9-.4,1.9-.6,3.1-.6,1.2,0,2.2.2,3.1.6s1.7.9,2.3,1.5c.6.6,1.1,1.4,1.4,2.1s.4,1.6.4,2.5c0,.8-.1,1.5-.3,2.1-.2.6-.5,1.2-.8,1.7-.3.5-.6,1-.9,1.4l-5.5,7.6c0,0-.2.2-.3.4-.1.1-.3.2-.6.2h-1.5ZM738.2,477.3c.8,0,1.5-.2,2.2-.5.7-.4,1.2-.8,1.6-1.5.4-.6.6-1.4.6-2.3,0-.9-.2-1.7-.6-2.3-.4-.6-.9-1.1-1.6-1.5-.7-.4-1.4-.5-2.2-.5s-1.5.2-2.2.5c-.7.4-1.2.8-1.6,1.5-.4.6-.6,1.4-.6,2.3s.2,1.7.6,2.3c.4.6.9,1.1,1.6,1.5s1.4.5,2.2.5Z"/>
        <path class="st7" d="M755.9,486.8c-1.1,0-2.1-.1-3-.4-.9-.3-1.7-.7-2.4-1.2-.7-.5-1.2-1.2-1.5-1.9-.4-.7-.5-1.6-.5-2.5s.3-2.2.8-3c.6-.8,1.3-1.5,2.2-1.9-.7-.4-1.3-1-1.7-1.7-.4-.7-.6-1.5-.6-2.5,0-1.1.3-2.1.8-2.9.6-.8,1.3-1.4,2.4-1.8,1-.4,2.2-.7,3.5-.7,1.3,0,2.5.2,3.5.6,1,.4,1.8,1,2.4,1.8.6.8.8,1.8.8,2.9s-.2,1.8-.6,2.5-1,1.3-1.7,1.7c.9.4,1.7,1.1,2.2,1.9.6.8.8,1.8.8,3s-.3,2.3-.9,3.2c-.6.9-1.5,1.6-2.6,2.1s-2.4.7-3.9.7ZM755.9,484.5c.9,0,1.7-.2,2.4-.5.7-.3,1.3-.7,1.7-1.3.4-.6.6-1.2.6-2,0-.8-.2-1.4-.6-2s-1-1-1.7-1.3-1.5-.4-2.4-.4-1.7.1-2.4.4c-.7.3-1.3.7-1.7,1.3s-.6,1.2-.6,2,.2,1.4.6,2c.4.6,1,1,1.7,1.3.7.3,1.5.5,2.4.5ZM755.9,474.9c.7,0,1.4-.1,2-.4.6-.3,1.1-.6,1.5-1.1s.6-1,.6-1.6-.2-1.2-.5-1.7c-.4-.5-.8-.8-1.4-1.1-.6-.3-1.3-.4-2.1-.4s-1.4.1-2.1.4c-.6.3-1.1.6-1.5,1.1-.4.5-.5,1-.5,1.7s.2,1.2.5,1.7.8.8,1.5,1.1c.6.2,1.3.4,2.1.4Z"/>
        <path class="st7" d="M773.7,486.8c-1.6,0-2.9-.3-4-1-1.1-.6-1.9-1.5-2.5-2.5-.6-1-.9-2.2-.9-3.4s0-1.1.2-1.6.3-1,.5-1.5c.2-.5.4-.9.7-1.3s.4-.7.6-.9l5.4-7.5c0,0,.2-.2.3-.4.1-.1.3-.2.6-.2h1.5c.2,0,.3,0,.4.2.1.1.2.3.2.4s0,.1,0,.2,0,.1,0,.2l-4.1,5.8c.2,0,.5-.1.8-.2.3,0,.6,0,.8,0,1,0,2,.2,2.8.6.9.4,1.6.8,2.2,1.5.6.6,1.1,1.3,1.4,2.1.3.8.5,1.7.5,2.6s-.3,2.3-.9,3.4c-.6,1-1.4,1.9-2.5,2.5-1.1.6-2.4,1-4,1ZM773.7,484.4c.8,0,1.5-.2,2.2-.5.7-.3,1.2-.8,1.7-1.5.4-.7.6-1.5.6-2.4s-.2-1.7-.6-2.4-1-1.1-1.7-1.5-1.4-.5-2.2-.5c-.8,0-1.5.2-2.2.5-.7.3-1.2.8-1.7,1.5-.4.7-.6,1.5-.6,2.4s.2,1.8.6,2.4c.4.7,1,1.2,1.7,1.5.7.3,1.4.5,2.2.5Z"/>
      </g>
      <g class="st17">
        <g>
          <g>
            <image width="138" height="90" transform="translate(244 704)" xlink:href="Final Logo-1.png"/>
            <image width="111" height="151" transform="translate(540 602)" xlink:href="Final Logo-2.png"/>
            <g class="st8">
              <image width="365" height="190" transform="translate(290 617)" xlink:href="Final Logo-4.png"/>
            </g>
            <image width="52" height="27" transform="translate(249 699)" xlink:href="Final Logo-5.png"/>
            <image width="426" height="200" transform="translate(230 586)" xlink:href="Final Logo-6.png"/>
            <image width="86" height="149" transform="translate(542 591)" xlink:href="Final Logo-7.png"/>
          </g>
          <g class="st6">
            <image width="15" height="22" transform="translate(486 727)" xlink:href="Final Logo-9.png"/>
          </g>
          <g class="st12">
            <image width="19" height="19" transform="translate(434 754)" xlink:href="Final Logo-11.png"/>
          </g>
          <image width="9" height="9" transform="translate(202 688)" xlink:href="Final Logo-12.png"/>
          <image width="8" height="8" transform="translate(221 655)" xlink:href="Final Logo-13.png"/>
          <image width="6" height="5" transform="translate(425 750)" xlink:href="Final Logo-14.png"/>
          <image width="8" height="7" transform="translate(426 758)" xlink:href="Final Logo-15.png"/>
          <image width="7" height="8" transform="translate(490 773)" xlink:href="Final Logo-16.png"/>
          <image width="7" height="7" transform="translate(629 562)" xlink:href="Final Logo-17.png"/>
          <image width="10" height="10" transform="translate(646 570)" xlink:href="Final Logo-18.png"/>
          <image width="9" height="9" transform="translate(634 528)" xlink:href="Final Logo-19.png"/>
          <image width="8" height="8" transform="translate(482 717)" xlink:href="Final Logo-20.png"/>
          <image width="8" height="8" transform="translate(285 640)" xlink:href="Final Logo-21.png"/>
          <g class="st23">
            <image width="34" height="29" transform="translate(215 697)" xlink:href="Final Logo-23.png"/>
          </g>
          <g class="st19">
            <image width="18" height="61" transform="translate(275 650)" xlink:href="Final Logo-25.png"/>
          </g>
          <g class="st1">
            <image width="23" height="77" transform="translate(612 537)" xlink:href="Final Logo-27.png"/>
          </g>
        </g>
      </g>
    </g>
    <g>
      <path d="M118.3,477.1l.4.2c1.3,3.5,3.1,5.7,5.2,6.6,1.2.5,2.4.5,3.4,0,1-.5,1.8-1.5,2.4-2.9l.8-1.9,4.2,1.7-1,2.4c-.5,1.3-.6,2.5-.2,3.6.4,1.1,1.2,1.9,2.4,2.4,1.2.5,2.4.4,3.5-.3,1.1-.7,1.9-1.7,2.4-3.1.8-2.1.9-4.1.2-6-.7-1.9-2-3.2-4-4l-13.5-5.4,2-5,28,11.3-2,5-6.9-2.8c1.5,2.8,1.5,5.9.2,9.3-1,2.5-2.6,4.4-4.8,5.7-2.2,1.3-4.4,1.5-6.8.5-1.9-.8-3.1-1.9-3.7-3.5-.6-1.6-.7-3.3-.4-5.1-1.1,1.4-2.4,2.4-4,3-1.6.6-3.2.5-4.9-.1-2.4-1-4.2-2.8-5.3-5.5l2.4-6Z"/>
      <path d="M157.4,471.4l-31.2-16.3c-1.2-.6-2.2-.8-3.1-.6s-1.6.8-2.1,1.7c-.5.9-.5,1.8-.2,2.6.4.8,1.1,1.5,2.2,2.1l.8.4-2.5,4.8-1-.5c-2.4-1.2-3.8-2.9-4.4-5-.5-2.1-.2-4.2,1-6.5,1.2-2.2,2.8-3.7,5-4.5,2.2-.8,4.5-.5,6.9.7l31,16.3-2.5,4.8Z"/>
      <path d="M149.7,437.1l-4.1-3c.5-2.2,1.6-4.5,3.4-6.9,1.7-2.4,3.8-3.9,6.3-4.6,2.5-.7,4.8-.3,6.9,1.3,3.1,2.3,3.8,5.8,2.1,10.7,0,.3-.3.8-.6,1.6-.3.8-.5,1.4-.6,1.8s-.2.9-.4,1.6c-.1.7-.2,1.3-.1,1.7,0,.4.2.9.4,1.4.2.5.6.9,1.1,1.3,1.2.9,2.3,1,3.5.4,1.2-.6,2.2-1.4,3-2.6,1.9-2.6,3.2-5.5,3.7-8.8l4.1,3c-.4,2.7-1.7,5.5-3.9,8.4-1.9,2.5-4.1,4.2-6.7,5-2.6.8-5.1.3-7.4-1.4-1.1-.8-1.8-1.7-2.4-2.7-.5-1-.8-2.1-.8-3.2,0-1.1.1-2.2.3-3.2s.5-2.1,1-3.3c.3-.9.5-1.5.7-1.9.1-.4.3-.9.4-1.6.2-.7.2-1.3.2-1.7,0-.4-.1-.8-.3-1.3-.2-.4-.5-.8-.9-1.1-1-.8-2.1-.9-3.2-.4-1.1.5-2.1,1.4-3,2.5-1.5,2.1-2.5,4.4-2.8,6.8Z"/>
      <path d="M138.2,423.9l-3.4-2.9c.6-1,1.2-1.9,1.8-2.7,2.1-2.5,4.8-3.5,8-3l8.6,1.3-3.3,3.9-6.3-.4c-1.7-.1-3.1.4-4.1,1.6-.5.6-.9,1.3-1.3,2.2Z"/>
      <path d="M172.8,426.6l-3.4-3.2,4.4-4.6c1.4-1.4,2.2-2.9,2.5-4.2.3-1.4-.2-2.6-1.2-3.6-1.1-1.1-2.3-1.5-3.6-1.3-1.3.2-2.6.9-3.8,2.2-.9.9-1.7,2-2.3,3.2l-3.4-3.3c.7-1.1,1.6-2.3,2.8-3.6,2.1-2.2,4.4-3.4,7-3.7,2.6-.3,4.9.5,7.1,2.6.8.8,1.5,1.7,1.9,2.7l5.9-6.1,3.2,3.1-8.8,9.1c-.4,1.6-1.3,3.2-2.5,4.7.1.1.3.4.6.6,1.6,1.5,3.2,2.3,4.8,2.3,1.6,0,3.1-.7,4.4-2.1.9-.9,1.6-2,2.2-3.3l3.4,3.3c-.6,1.3-1.5,2.6-2.7,3.8-2.2,2.3-4.8,3.4-7.8,3.4-3,0-5.8-1.4-8.6-4l-2.2,2.3Z"/>
      <path d="M184.1,398.5l-3.2-4c1-2,2.7-3.9,5.1-5.7,2.3-1.8,4.7-2.7,7.3-2.8,2.6,0,4.7,1,6.3,3,2.4,3,2.1,6.6-.8,10.9-.1.2-.5.7-1,1.4-.5.7-.9,1.2-1.1,1.6-.2.3-.5.8-.8,1.5-.3.6-.5,1.2-.6,1.6,0,.4,0,.9,0,1.4,0,.5.3,1,.7,1.5.9,1.1,2,1.6,3.3,1.3,1.3-.2,2.5-.8,3.6-1.7,2.6-2,4.5-4.5,5.8-7.5l3.1,4c-1.1,2.5-3.1,4.8-5.9,7.1-2.5,2-5.1,3-7.8,3.1s-5-1-6.8-3.3c-.8-1-1.3-2.1-1.6-3.2-.2-1.1-.2-2.2.1-3.3.3-1.1.7-2.1,1.2-3,.5-.9,1.1-1.9,1.8-2.9.5-.8.9-1.3,1.1-1.6.2-.3.5-.8.9-1.5.3-.6.6-1.2.6-1.6,0-.4,0-.8,0-1.3,0-.5-.3-.9-.6-1.3-.8-1-1.8-1.4-3-1.2-1.2.2-2.4.8-3.5,1.7-2,1.6-3.5,3.6-4.5,5.9Z"/>
      <path d="M241.7,357.6l5-2.1,11.6,27.9-5,2.1-5.3-12.9-6.3,2.6c.6,2.8.2,5.3-1,7.5s-3.2,3.9-6,5.1c-2.7,1.1-5.4,1.3-8,.6-2.6-.7-4.7-2.4-6.3-5.1l-2.8,1.2-1.8-4.2,5.8-2.4c1.2-.5,2-1.1,2.7-1.9.6-.8.7-1.8.2-2.9-.4-1-1.1-1.6-2.1-1.8-1-.2-2.1-.1-3.3.4-1.1.5-2.2,1.1-3.1,1.8l-1.8-4.3c1.2-.8,2.4-1.5,3.7-2,2.4-1,4.7-1.2,7-.6,2.2.6,3.8,2.1,4.8,4.5.9,2.1.9,4,0,5.8-.9,1.8-2.3,3.2-4.4,4.3.8,1.4,1.9,2.3,3.2,2.7,1.3.4,2.8.3,4.4-.4,1.9-.8,3-2,3.5-3.7.5-1.7.3-3.6-.6-5.8l-2.5-6,5-2.1,2,4.8,6-2.5-4.5-10.9ZM239.7,347.5l-1.7-4.2c1-.7,1.9-1.2,2.8-1.6,3-1.2,5.8-.9,8.5,1l7.1,5.1-4.7,1.9-5.4-3.3c-1.5-.9-2.9-1.1-4.4-.5-.7.3-1.4.7-2.2,1.4ZM252.8,353l5-2.1,11.6,27.9-5,2.1-11.6-27.9Z"/>
      <path d="M286.1,376.3c-2.4.5-4.5.3-6.5-.5l1.3,5.9-5,1.1-2.5-11.8,4.8-1c.5,1,1.3,1.7,2.4,2,1.1.4,2.3.4,3.5.1,1.3-.3,2.4-.9,3.2-1.8s1.1-2,.8-3.1c-.3-1.3-1-2.3-2.1-2.8-1.1-.5-2.6-.9-4.4-1.1l-10.4,5.3-1-4.6,5-2.4c-2.8-.9-4.5-2.6-5.1-5.2-.5-2.4,0-4.5,1.7-6.3,1.6-1.7,4-2.9,7-3.6,2.8-.6,5.5-.8,8-.6l1,4.6c-2.7-.2-5.3,0-7.8.5-1.6.3-2.8.9-3.6,1.7-.8.8-1.1,1.8-.9,3,.4,1.7,1.9,2.8,4.7,3.1l11.1-5.5,1,4.6-5,2.4c3.5.9,5.5,2.8,6.2,6,.5,2.5,0,4.7-1.4,6.5-1.5,1.8-3.5,3-6,3.5Z"/>
      <path class="st22" d="M311.4,372.2l-3.1-32.2c-.3-3.5.4-6.3,2.2-8.6,1.8-2.2,4.7-3.5,8.4-3.9,6.5-.6,13.3.2,20.6,2.6l.4,4.6c-3-1-6.4-1.8-10.2-2.3s-6.9-.7-9.6-.4c-4.8.5-7,3-6.6,7.7l3.1,31.9-5.4.5Z"/>
      <path class="st22" d="M339.6,340.3l5.4-.2.9,30.2-5.4.2-.3-10.1c-1.6,2.4-4.1,3.6-7.4,3.7-3.4.1-6.2-.9-8.5-3.1-2.3-2.1-3.5-4.9-3.6-8.3,0-3.2.9-6,2.9-8.3,2.1-2.3,4.8-3.5,8.2-3.6,1.2,0,2.3,0,3.3.2v4.6c-.6-.1-1.3-.2-2-.2-2.2,0-3.9.8-5.2,2.1-1.3,1.4-1.8,3-1.8,5.1,0,2,.7,3.6,2,4.9,1.3,1.3,3,1.9,5.1,1.8,1.8,0,3.3-.7,4.7-1.8,1.3-1.2,2-2.7,2.1-4.5l-.4-12.8Z"/>
      <path class="st22" d="M366.7,345.3c-2.8-.2-5.1.7-7,2.6-1.8,1.9-2.8,4.4-3,7.5-.2,3.3.5,6,2.1,8,1.6,2,3.8,3.1,6.7,3.2,1,0,2.2,0,3.5-.3l-.2,4.6c-1.5.3-2.9.4-4.3.3-4.2-.2-7.5-1.8-9.9-4.8-2.4-3-3.5-6.8-3.3-11.3.2-4.6,1.7-8.3,4.4-10.9s6.1-3.9,10.2-3.6c1.5,0,3,.3,4.5.8l-.2,4.7c-1.2-.4-2.3-.7-3.3-.7ZM374.2,341.3l5.4.3-1.6,30.1-5.4-.3.7-12.9-10.9-.6.2-4.7,10.9.6.7-12.6Z"/>
      <path class="st22" d="M366.1,330.4l.4-4.5c1.2-.1,2.2-.2,3.2,0,3.2.3,5.6,1.9,7,4.9l3.9,7.8-5.1-.5-3.3-5.4c-.9-1.5-2.1-2.3-3.6-2.4-.7,0-1.6,0-2.6.2Z"/>
      <path class="st22" d="M418.5,346.3v.4c0,0-10.5,8.7-10.5,8.7,3,4.9,4.3,9.1,3.9,12.4-.3,2.3-1.4,4.1-3.3,5.5s-4.3,1.9-7.2,1.5c-2.5-.3-4.7-1.4-6.4-3.1-1.7-1.7-2.4-4-2.1-6.6.2-1.7.8-3.2,1.9-4.6s2.7-3,4.9-4.8l1.6-1.3c-1.4-2.1-2.8-3.8-4-4.9-1.2-1.1-2.5-1.8-3.8-2-1-.1-1.8,0-2.6.5-.7.5-1.2,1.2-1.3,2.2-.1.9.1,1.7.7,2.3s1.3,1.1,2.4,1.2c.8,0,1.5,0,2.1-.1l-.6,4.4c-.7.2-1.7.2-3,0-2.3-.3-4.1-1.3-5.4-3-1.3-1.7-1.8-3.6-1.6-5.7.3-2.3,1.3-4.1,3.1-5.3,1.8-1.3,3.9-1.7,6.4-1.4,2.3.3,4.3,1.2,6.1,2.6,1.8,1.4,3.6,3.4,5.3,5.9l7.3-5.8,5.8.7ZM402,370.3c1.1.1,2.2-.1,3.1-.8.9-.7,1.4-1.7,1.6-2.9.3-2.1-.6-4.8-2.5-8.1l-1.8,1.4c-1.5,1.3-2.6,2.4-3.1,3.2-.5.8-.9,1.7-1,2.6-.1,1.1.1,2.1.8,3,.7.9,1.6,1.4,2.8,1.6Z"/>
    </g>
  </g>
</svg>