<?xml version="1.0" standalone="no"?>
<!DOCTYPE svg PUBLIC "-//W3C//DTD SVG 20010904//EN"
 "http://www.w3.org/TR/2001/REC-SVG-20010904/DTD/svg10.dtd">
<svg version="1.0" xmlns="http://www.w3.org/2000/svg"
 width="640.000000pt" height="640.000000pt" viewBox="0 0 640.000000 640.000000"
 preserveAspectRatio="xMidYMid meet">

<g transform="translate(0.000000,640.000000) scale(0.100000,-0.100000)"
fill="#000000" stroke="none">
<path d="M4419 4343 c-13 -16 -12 -17 4 -4 16 13 21 21 13 21 -2 0 -10 -8 -17
-17z"/>
<path d="M4892 4204 c10 -10 20 -16 22 -13 3 3 -5 11 -17 18 -21 13 -21 12 -5
-5z"/>
<path d="M2288 4137 c-134 -50 -255 -173 -413 -417 -37 -58 -71 -108 -74 -112
-4 -4 -56 9 -116 28 -61 20 -143 42 -183 50 -99 19 -272 18 -347 -2 -117 -30
-232 -113 -297 -214 -73 -115 -92 -292 -46 -427 67 -191 239 -349 420 -386
l60 -12 28 -75 c37 -102 103 -237 141 -289 28 -39 32 -41 47 -28 9 9 29 18 44
22 15 4 33 14 40 22 11 13 13 13 19 -4 7 -16 8 -16 15 5 7 23 7 23 25 -8 10
-17 28 -58 40 -92 24 -73 45 -105 113 -176 63 -66 83 -77 193 -104 74 -19 116
-22 258 -22 101 0 193 5 228 13 56 12 72 26 42 37 -16 7 -21 34 -6 34 5 0 18
-12 29 -27 l20 -27 62 17 c34 10 90 31 126 47 75 34 95 63 76 113 -8 20 -8 35
-2 41 9 9 30 -30 30 -55 0 -11 14 -11 62 0 42 10 245 143 395 260 119 92 254
162 369 190 45 12 185 32 310 46 220 23 326 45 419 85 38 16 43 16 71 2 47
-26 197 -22 254 6 117 58 204 150 290 306 30 53 55 95 56 93 2 -2 -3 -25 -11
-52 -20 -66 -19 -178 2 -222 54 -114 206 -177 335 -139 102 29 238 155 238
219 0 28 -30 74 -57 86 -47 21 -81 13 -128 -30 -25 -23 -48 -39 -51 -36 -12
12 18 103 72 217 29 63 56 130 60 147 10 49 -4 100 -37 138 -37 42 -81 52
-153 36 -98 -22 -101 -21 -98 24 5 64 -7 121 -32 148 -21 23 -23 33 -19 89 6
78 -11 218 -28 229 -7 4 -33 10 -58 14 -25 3 -70 13 -100 21 -53 15 -54 15
-80 -9 -53 -49 -126 -91 -198 -114 -163 -51 -339 -15 -507 104 l-49 35 -63
-16 c-139 -35 -276 -6 -392 82 -33 25 -33 25 -70 8 -49 -24 -212 -123 -337
-206 -168 -111 -260 -155 -370 -180 -45 -10 -313 -15 -322 -6 -14 14 92 244
146 315 49 65 51 92 12 132 -26 25 -37 29 -89 29 -32 0 -80 -6 -107 -14 -43
-13 -50 -13 -73 2 -33 22 -183 27 -234 9z m212 -63 c48 -21 62 -24 79 -14 35
18 129 30 157 20 32 -12 30 -29 -7 -76 -41 -52 -87 -145 -150 -301 -43 -109
-129 -353 -129 -368 0 -13 66 -3 110 16 27 12 56 19 65 16 48 -19 -103 -181
-189 -203 -34 -8 -43 -30 -51 -132 -10 -111 -2 -146 39 -171 42 -26 76 -26
126 -1 71 36 109 95 140 217 35 135 106 332 130 357 28 29 86 14 131 -35 20
-21 39 -39 42 -39 3 0 27 14 53 32 153 103 274 102 332 -3 15 -27 30 -49 33
-49 3 0 24 14 45 31 58 46 145 87 201 95 94 12 173 -53 173 -143 0 -26 -16
-85 -41 -150 -74 -193 -88 -283 -49 -318 58 -53 216 65 234 175 23 147 165
343 292 406 100 49 233 39 306 -25 18 -15 49 -31 67 -35 46 -8 80 -31 91 -62
8 -20 -1 -58 -45 -189 -56 -166 -68 -248 -43 -273 33 -33 112 0 179 74 62 69
209 344 209 392 0 5 -12 31 -26 56 -49 87 -29 185 46 229 38 23 83 11 122 -31
36 -38 40 -57 23 -105 -8 -23 -15 -50 -15 -60 0 -25 46 -40 108 -33 28 3 76 9
105 12 47 5 54 3 76 -20 38 -40 31 -84 -31 -216 -66 -138 -79 -176 -81 -233
-4 -89 50 -102 132 -32 29 25 56 45 61 45 16 0 40 -31 40 -51 0 -29 -96 -121
-155 -148 -108 -51 -254 -8 -302 89 -40 78 -27 157 54 329 52 109 50 120 -18
137 l-44 11 -20 -41 c-11 -23 -31 -66 -44 -96 -91 -203 -221 -369 -330 -423
-123 -61 -281 -14 -307 90 -4 12 -8 23 -11 23 -3 0 -27 -20 -54 -44 -70 -63
-141 -96 -206 -96 -82 0 -158 47 -178 110 -5 17 -13 14 -63 -27 -77 -63 -124
-83 -198 -83 -110 0 -187 42 -225 125 -33 71 -20 179 40 323 42 102 48 138 24
151 -43 23 -129 -65 -188 -191 -47 -102 -85 -238 -93 -328 l-7 -75 -49 -3
c-61 -4 -131 21 -153 54 -25 39 -12 146 40 309 24 77 47 156 51 177 19 103
-93 69 -168 -51 -60 -95 -92 -204 -110 -381 l-11 -105 -40 -3 c-75 -6 -175 43
-175 86 0 9 -18 0 -51 -24 -64 -47 -110 -63 -179 -63 -134 0 -233 77 -261 205
-9 42 -9 76 0 151 6 54 14 107 17 118 4 17 -13 31 -116 88 -67 37 -125 65
-129 62 -5 -2 -46 -71 -91 -152 -153 -273 -238 -376 -359 -436 -61 -30 -72
-32 -171 -32 -100 0 -109 2 -174 34 -147 72 -264 231 -289 390 -27 178 55 357
204 444 59 35 186 67 264 67 112 0 293 -40 445 -99 52 -20 56 -21 68 -4 7 10
55 83 107 161 148 226 255 334 368 373 73 26 129 24 197 -7z m1310 -369 c18
-21 6 -29 -19 -13 -16 10 -23 10 -33 0 -9 -9 -3 -15 25 -27 23 -9 37 -22 37
-33 0 -22 -19 -42 -40 -42 -22 0 -57 26 -48 36 4 4 14 1 23 -6 15 -13 45 -7
45 9 0 5 -14 14 -30 20 -17 5 -33 17 -36 26 -14 37 50 62 76 30z m50 5 c0 -5
-4 -10 -10 -10 -5 0 -10 5 -10 10 0 6 5 10 10 10 6 0 10 -4 10 -10z m410 -55
c0 -30 -4 -57 -10 -60 -6 -4 -10 14 -10 46 0 45 -2 50 -15 39 -9 -7 -19 -10
-23 -6 -9 10 37 48 49 40 5 -3 9 -29 9 -59z m88 53 c20 -20 13 -52 -19 -88
-29 -33 -30 -34 -25 -10 4 18 0 29 -14 38 -24 15 -25 35 -4 56 18 19 45 21 62
4z m98 4 c6 -4 14 -28 18 -54 7 -45 6 -49 -19 -60 -40 -18 -60 -1 -61 53 -2
60 25 86 62 61z m104 0 c0 -4 -5 -13 -11 -19 -8 -8 -6 -13 9 -17 42 -14 28
-86 -17 -86 -48 1 -58 48 -20 99 22 30 39 40 39 23z m-700 -72 c0 -21 -4 -42
-10 -45 -6 -4 -10 13 -10 45 0 32 4 49 10 45 6 -3 10 -24 10 -45z m84 44 c11
-4 16 -19 16 -45 0 -47 -17 -52 -22 -6 -4 47 -32 43 -36 -5 -4 -53 -22 -48
-22 6 0 34 4 46 18 49 27 7 29 7 46 1z m106 -9 c7 -9 10 -19 6 -22 -4 -4 -11
-1 -16 6 -11 19 -40 6 -40 -19 0 -23 31 -41 38 -22 5 17 22 15 22 -3 0 -20
-46 -30 -65 -15 -18 15 -20 61 -3 78 17 17 43 15 58 -3z m95 -1 c21 -22 14
-38 -18 -42 -15 -2 -27 -8 -27 -14 0 -6 10 -8 25 -4 30 8 34 -10 4 -19 -21 -7
-59 18 -59 39 0 19 30 56 45 56 7 0 21 -7 30 -16z m1006 -467 c-10 -9 -11 -8
-5 6 3 10 9 15 12 12 3 -3 0 -11 -7 -18z m-3501 -557 c0 -5 -7 -10 -15 -10 -8
0 -15 5 -15 10 0 6 7 10 15 10 8 0 15 -4 15 -10z m-35 -49 c7 -12 -12 -24 -25
-16 -11 7 -4 25 10 25 5 0 11 -4 15 -9z m658 -35 c18 -7 45 -28 60 -45 22 -26
27 -43 27 -85 0 -200 -178 -368 -308 -291 -47 28 -65 75 -60 155 6 83 37 149
99 212 63 63 121 80 182 54z m-674 -33 c10 -19 9 -23 -4 -23 -10 0 -15 9 -15
27 0 29 2 29 19 -4z m1111 7 c15 -15 19 -28 14 -48 -10 -42 -62 -132 -111
-189 -35 -42 -44 -59 -41 -84 4 -42 30 -59 56 -36 25 23 34 21 30 -5 -2 -12
-18 -30 -35 -41 -28 -16 -38 -17 -68 -7 -19 6 -39 19 -44 27 -7 14 -12 13 -40
-8 -43 -31 -97 -31 -123 1 -23 29 -20 72 13 163 23 61 42 72 72 40 14 -16 14
-24 -5 -92 -14 -52 -17 -76 -9 -84 15 -15 60 11 65 37 31 160 75 265 132 315
40 36 66 39 94 11z m-212 -53 c4 -35 -24 -69 -52 -65 -28 4 -34 58 -10 82 25
26 58 17 62 -17z m-927 -15 c-17 -32 -13 -55 14 -92 32 -44 32 -57 0 -27 -31
28 -43 88 -25 123 7 13 15 22 17 20 3 -2 0 -13 -6 -24z m1254 -292 c-5 -8 -11
-8 -17 -2 -6 6 -7 16 -3 22 5 8 11 8 17 2 6 -6 7 -16 3 -22z m-345 -180 c0 -5
-4 -10 -10 -10 -5 0 -10 5 -10 10 0 6 5 10 10 10 6 0 10 -4 10 -10z m10 -55
c0 -8 -4 -15 -9 -15 -13 0 -22 16 -14 24 11 11 23 6 23 -9z"/>
<path d="M2397 3978 c-53 -14 -138 -96 -206 -197 -65 -97 -191 -309 -191 -321
0 -4 37 -22 83 -40 45 -17 93 -36 106 -41 13 -5 25 -8 28 -6 2 3 19 50 39 106
40 118 127 321 183 427 22 41 36 74 31 74 -5 0 -14 2 -22 4 -7 2 -30 -1 -51
-6z m-76 -189 c-26 -57 -64 -147 -84 -199 -20 -52 -40 -107 -46 -123 l-11 -27
-42 16 c-24 10 -47 21 -52 25 -9 8 57 129 140 254 53 79 132 171 140 162 2 -2
-18 -51 -45 -108z"/>
<path d="M1345 3479 c-143 -24 -254 -104 -297 -214 -62 -159 -1 -310 140 -351
145 -42 264 34 416 265 90 137 146 229 146 241 0 10 -108 44 -190 60 -61 12
-143 11 -215 -1z m256 -65 c38 -8 69 -18 69 -21 0 -8 -35 -66 -116 -188 -76
-117 -162 -207 -219 -230 -87 -37 -193 -3 -233 75 -20 38 -23 55 -18 113 7
100 58 176 147 223 86 44 246 56 370 28z"/>
<path d="M4373 3331 c-78 -48 -183 -272 -183 -391 0 -78 58 -104 115 -52 76
70 161 220 185 327 26 114 -29 169 -117 116z"/>
<path d="M4307 3686 c-7 -18 1 -26 25 -26 13 0 18 6 16 17 -4 22 -34 29 -41 9z"/>
<path d="M4417 3694 c-14 -14 -7 -25 13 -22 12 2 21 8 21 13 0 12 -24 18 -34
9z"/>
<path d="M4415 3640 c-4 -7 -3 -16 3 -22 14 -14 45 -2 40 15 -6 16 -34 21 -43
7z"/>
<path d="M4523 3644 c-9 -23 13 -40 32 -24 12 10 13 16 4 26 -15 18 -28 18
-36 -2z"/>
<path d="M4100 3660 c0 -5 9 -10 21 -10 11 0 17 5 14 10 -3 6 -13 10 -21 10
-8 0 -14 -4 -14 -10z"/>
<path d="M2205 2529 c-34 -17 -58 -59 -58 -102 0 -43 23 -70 49 -60 8 3 14 1
14 -4 0 -16 -23 -33 -46 -33 -27 0 -74 36 -74 58 -1 15 -2 15 -11 -1 -6 -10
-11 -49 -12 -87 -2 -56 2 -74 19 -97 26 -34 68 -42 96 -16 48 43 98 188 98
285 0 37 -4 50 -19 58 -23 12 -30 12 -56 -1z"/>
<path d="M2636 2438 c-19 -40 -38 -84 -41 -98 l-6 -25 21 25 c22 27 80 141 80
159 0 29 -22 4 -54 -61z"/>
<path d="M3639 2263 c-13 -16 -12 -17 4 -4 16 13 21 21 13 21 -2 0 -10 -8 -17
-17z"/>
<path d="M3579 2203 c-13 -16 -12 -17 4 -4 9 7 17 15 17 17 0 8 -8 3 -21 -13z"/>
<path d="M1460 2056 c0 -3 9 -10 20 -16 11 -6 20 -8 20 -6 0 3 -9 10 -20 16
-11 6 -20 8 -20 6z"/>
<path d="M2121 1751 c23 -15 136 -31 204 -29 57 2 58 2 12 5 -26 2 -45 8 -42
14 4 5 -12 9 -37 9 -24 0 -68 3 -98 6 -39 4 -50 2 -39 -5z"/>
<path d="M2368 1703 c6 -2 18 -2 25 0 6 3 1 5 -13 5 -14 0 -19 -2 -12 -5z"/>
</g>
</svg>
